<svg clip-rule="evenodd" fill-rule="evenodd" height="512" image-rendering="optimizeQuality" shape-rendering="geometricPrecision" text-rendering="geometricPrecision" viewBox="0 0 512 512" width="512" xmlns="http://www.w3.org/2000/svg" xmlns:xlink="http://www.w3.org/1999/xlink"><linearGradient id="id0" gradientUnits="userSpaceOnUse" x1="470.631" x2="41.372" y1="256" y2="256"><stop offset="0" stop-color="#f071ab"/><stop offset="1" stop-color="#22abe2"/></linearGradient><g id="Layer_x0020_1"><path d="m293 46v1 1 1h1v23h55c2-13 14-23 27-23 16 0 29 13 29 28 0 16-13 29-29 29-13 0-25-10-27-23h-55v111h54v-27-1-1h1v-1c1-2 3-3 5-3h61c2-13 14-22 27-22 16 0 29 12 29 28 0 15-13 28-29 28-13 0-25-10-27-22h-55v27 1h-1v1 1h-1v1h-1v1h-1-1v1h-1-60v43h55c2-13 14-23 27-23 16 0 29 13 29 28 0 16-13 29-29 29-13 0-25-10-27-23h-55v16c-6 6-18 21-26 25-11 5-25 4-43-3-3-1-6 0-7 3s0 6 3 7c12 5 22 7 32 7 7 0 14-1 20-4 7-3 14-11 21-18v10h60 1 1v1h1 1v1 1h1v1 1h1v1 27h55c2-13 14-22 27-22 16 0 29 12 29 28 0 15-13 28-29 28-13 0-25-10-27-22h-61c-3 0-6-3-6-6v-27h-54v83c-11-3-26-6-37-2-14 5-25 17-33 35-1 3 0 7 3 8h2c3 0 5-1 6-3 6-16 15-25 25-29 9-3 25 1 34 3v16h55c2-13 14-23 27-23 16 0 29 13 29 28 0 16-13 29-29 29-13 0-25-10-27-23h-55v22 1h-1v2c-11 24-37 40-65 40-39 0-70-29-71-64-37-2-66-31-66-66 0-11 3-22 9-32-35-14-59-46-59-82 0-37 25-70 62-83-7-10-11-23-11-35 0-35 29-64 66-66 2-35 33-64 71-64 27 0 52 14 64 36zm-144 265c-1 0-2 0-3 0-15-1-29-10-42-26-2-3-2-6 0-8 3-2 7-2 9 1 10 13 22 21 33 21 14 2 23-7 23-7 2-2 6-2 8 1 2 2 2 6 0 8-1 0-12 10-28 10zm-1-112c-2 0-5 0-8 0-18-4-26-17-26-18-2-3-1-6 1-8 3-1 7-1 8 2 1 0 7 10 19 12s25-2 40-13c3-2 6-1 8 2 2 2 1 6-1 8-14 10-28 15-41 15zm26 62c-1 0-1 0-2 0-3-1-4-5-3-8 8-18 19-30 32-35 18-6 34 2 34 2 3 2 4 5 3 8-2 3-5 4-8 3 0 0-12-6-25-2-10 4-19 14-26 29 0 2-3 3-5 3zm21 120c-15 0-27-3-36-11-13-11-13-26-13-27 0-3 2-6 6-6 3 0 5 3 5 6 0 0 1 11 10 18 8 8 22 10 41 8 4-1 6 2 7 5 0 3-2 6-5 6-5 1-10 1-15 1zm18-263c-15 0-27-4-36-12-13-11-13-26-13-27 0-3 2-5 6-5 3 0 5 2 5 5 0 1 1 11 10 19 8 7 22 10 41 7 4 0 6 2 7 5 0 3-2 6-5 7-5 0-10 1-15 1z" fill="url(#id0)"/></g></svg>