<svg id="line" height="512" viewBox="0 0 64 64" width="512" xmlns="http://www.w3.org/2000/svg"><path d="m31 53h17.586l4.414-4.414v-17.586h-22z" fill="#c4a2fc"/><path d="m60 21h-36a3 3 0 0 0 -3 3v36a3 3 0 0 0 3 3h36a3 3 0 0 0 3-3v-36a3 3 0 0 0 -3-3zm-3 20a1 1 0 0 1 0 2h-2v6a1 1 0 0 1 -.293.707l-5 5a1 1 0 0 1 -.707.293h-6v2a1 1 0 0 1 -2 0v-2h-6v2a1 1 0 0 1 -2 0v-2h-3a1 1 0 0 1 -1-1v-3h-2a1 1 0 0 1 0-2h2v-6h-2a1 1 0 0 1 0-2h2v-6h-2a1 1 0 0 1 0-2h2v-3a1 1 0 0 1 1-1h3v-2a1 1 0 0 1 2 0v2h6v-2a1 1 0 0 1 2 0v2h6v-2a1 1 0 0 1 2 0v2h3a1 1 0 0 1 1 1v3h2a1 1 0 0 1 0 2h-2v6z" fill="#c4a2fc"/><g fill="#151a6a"><path d="m47.653 26a9 9 0 0 0 -4.653-15.945 8.994 8.994 0 0 0 -17-4.155 8.994 8.994 0 0 0 -17 4.155 9 9 0 0 0 -4.653 15.945 9 9 0 0 0 4.653 15.945v.055a8.994 8.994 0 0 0 17 4.1 8.994 8.994 0 0 0 17-4.1v-.055a9 9 0 0 0 4.653-15.945zm-29.653 23a7.008 7.008 0 0 1 -7-7c0-.021 0-.04 0-.061a8.952 8.952 0 0 0 2.368-.592 1 1 0 0 0 -.749-1.854 7 7 0 0 1 -6.004-12.618 1 1 0 0 0 0-1.75 7 7 0 0 1 6.008-12.618 1 1 0 0 0 .749-1.854 8.952 8.952 0 0 0 -2.372-.592 7 7 0 1 1 14-.061v3h-4.184a3 3 0 1 0 0 2h4.184v6h-9.184a3 3 0 1 0 0 2h9.184v6h-9.184a3 3 0 1 0 0 2h9.184v6h-4.184a3 3 0 1 0 0 2h4.184v3a7.008 7.008 0 0 1 -7 7zm1-35a1 1 0 1 1 -1-1 1 1 0 0 1 1 1zm-5 8a1 1 0 1 1 -1-1 1 1 0 0 1 1 1zm0 8a1 1 0 1 1 -1-1 1 1 0 0 1 1 1zm5 8a1 1 0 1 1 -1-1 1 1 0 0 1 1 1zm20.377 1.493a1 1 0 0 0 -.749 1.854 8.952 8.952 0 0 0 2.372.592v.061a7 7 0 0 1 -14 0v-32a7 7 0 1 1 14 .061 8.952 8.952 0 0 0 -2.368.592 1 1 0 0 0 .749 1.854 7 7 0 0 1 6.008 12.618 1 1 0 0 0 0 1.75 7 7 0 0 1 -6.008 12.618z"/><path d="m42.171 21.758a1 1 0 0 0 -1.414 0 6 6 0 0 0 0 8.484 1 1 0 0 0 1.414-1.414 4 4 0 0 1 0-5.656 1 1 0 0 0 0-1.414z"/><path d="m38.964 34.5a5.971 5.971 0 0 0 -3.736 1.313 8.675 8.675 0 0 1 -2.228-5.813 1 1 0 0 0 -2 0 10.658 10.658 0 0 0 2.89 7.313 5.956 5.956 0 0 0 -.926 3.187 1 1 0 0 0 2 0 4 4 0 0 1 4-4 1 1 0 0 0 0-2z"/><path d="m32 23a1 1 0 0 0 1-1 8.675 8.675 0 0 1 2.228-5.813 5.971 5.971 0 0 0 3.736 1.313 1 1 0 0 0 0-2 4 4 0 0 1 -4-4 1 1 0 0 0 -2 0 5.958 5.958 0 0 0 .926 3.187 10.661 10.661 0 0 0 -2.89 7.313 1 1 0 0 0 1 1z"/></g></svg>