<svg id="Layer_1" viewBox="0 0 64 64" xmlns="http://www.w3.org/2000/svg" xmlns:xlink="http://www.w3.org/1999/xlink" data-name="Layer 1"><linearGradient id="geadient" gradientUnits="userSpaceOnUse" x1="1" x2="63" y1="32" y2="32"><stop offset="0" stop-color="#f6abff"/><stop offset="1" stop-color="#6a6eff"/></linearGradient><path d="m62.52 18.25c-1.42-1.3-2.5.26-3.59 1.07 0 0-14.26-14.26-14.26-14.26.47-.8 1.57-1.38 1.55-2.42.05-1.42-1.83-2.18-2.81-1.16-5.13 5.13-4.5 11.36-3.11 17.86-6.49-1.4-12.71-2.04-17.86 3.11-5.13 5.13-4.5 11.36-3.11 17.86-6.49-1.4-12.71-2.04-17.86 3.11-1.49 1.55.76 3.84 2.33 2.33.41-.41.83-.76 1.26-1.07l14.26 14.26c-.5.83-1.56 1.37-1.55 2.42-.02.89.76 1.67 1.65 1.65.44 0 .85-.17 1.16-.48 5.15-5.15 4.51-11.38 3.11-17.86 6.39 1.37 12.68 2.07 17.86-3.1 5.15-5.15 4.51-11.38 3.11-17.86 2.58.55 5.11.99 7.55.99 3.71 0 7.21-1 10.3-4.1.64-.61.64-1.72 0-2.33zm-4.52 1.69c-.34.2-.68.37-1.03.53l-13.44-13.44c.15-.35.33-.69.53-1.03l13.95 13.95zm-14.14.19c-1.07-4.7-1.75-8.63-.75-11.98l12.73 12.73c-3.35 1-7.28.32-11.98-.75zm-4.64 19.08c-.13.13-.27.25-.41.37l-14.41-14.41c.12-.14.24-.27.37-.4s.27-.25.4-.37l14.41 14.41c-.12.14-.24.27-.37.41zm-3.38 2.3c-.19-.3-12.97-12.97-13.18-13.22-.38-.42.76-1.73 1.04-2.26 0 0 14.26 14.26 14.26 14.26-.68.51-1.39.92-2.12 1.22zm-2.41.66-11.6-11.6c.07-.44.17-.86.28-1.27l12.59 12.59c-.42.12-.84.21-1.28.27zm-10.54-1.07c-.79-3.46-1.37-6.41-1.22-9.14l10.35 10.35c-2.68.14-5.7-.44-9.14-1.22zm17.4-3.14-14.26-14.26c.54-.3 1.83-1.41 2.26-1.05 0 0 13.05 13.05 13.05 13.05.42.43-.75 1.7-1.05 2.26zm-9.72-16.14 11.6 11.6c-.07.44-.16.86-.27 1.28l-12.6-12.6c.41-.12.83-.21 1.27-.28zm11.75 10.2-10.35-10.35c2.73-.15 5.68.43 9.14 1.22.78 3.43 1.35 6.45 1.22 9.14zm-21.46 23.78-12.71-12.71c3.35-1 7.28-.32 11.98.75 1.06 4.65 1.74 8.54.73 11.95zm-17.82-10.84c-.49.51-1.29-.28-.78-.78 4.89-4.89 10.99-4.11 17.34-2.71l.27 1.18c-5.74-1.41-12.42-2.29-16.83 2.3zm3.99-1.44 13.43 13.43c-.15.35-.33.7-.52 1.03l-13.94-13.94c.34-.2.68-.37 1.03-.53zm12.78 18.22c-.32.33-.96.09-.94-.39.18-.66 1.28-1.45 1.66-2.2 3.02-4.72 2.01-9.56.61-15.88-1.63-7.01-3.51-14.53 2.09-20.05 4.89-4.89 10.98-4.11 17.34-2.71l.27 1.19c-3.83-.86-7.07-1.44-10.15-1.01-5.07.59-9.39 4.91-9.99 9.99-1.34 9.68 7.72 22.68-.89 31.06zm20.97-20.97c-4.87 4.87-10.98 4.1-17.34 2.71-.09-.4-.18-.79-.27-1.18 6.02 1.53 13.29 2.26 17.58-3.11 4.59-5.51 2.21-12.95.82-19.25-1.44-6.48-2.33-12.72 2.63-17.68.2-.21.57-.21.78 0 .21.2.21.57 0 .78-.59.59-1.08 1.21-1.51 1.85-6.82 10.97 7.49 25.8-2.69 35.89zm20.97-20.97c-4.87 4.87-10.98 4.1-17.34 2.71-.09-.39-.18-.79-.27-1.18 5.01 1.15 10.56 2.16 14.99-.79.63-.42 1.25-.91 1.84-1.5.21-.21.56-.21.78 0 .21.2.21.57 0 .78z" fill="url(#geadient)"/></svg>