<svg id="Layer_1" height="512" viewBox="0 0 512 512" width="512" xmlns="http://www.w3.org/2000/svg" xmlns:xlink="http://www.w3.org/1999/xlink" data-name="Layer 1"><linearGradient id="GradientFill_1" gradientUnits="userSpaceOnUse" x1="152.286" x2="380.68" y1="440.883" y2="101.64"><stop offset="0" stop-color="#617fc0"/><stop offset="1" stop-color="#20c4f4"/></linearGradient><path d="m91.659 260.15a92.038 92.038 0 0 1 63.307 25.039 153.563 153.563 0 0 0 -48.448 85.362 145.24 145.24 0 0 1 -14.859.778 139.442 139.442 0 0 1 -91.659-34.192c7.988-44.128 46.816-76.987 91.659-76.987zm0-119.479a51 51 0 1 1 -51 51 51.05 51.05 0 0 1 51-51zm242.121 20.929a77.788 77.788 0 1 1 -77.78-77.786 77.871 77.871 0 0 1 77.78 77.786zm35.551 30.067a51.006 51.006 0 1 1 51.01 51 51.058 51.058 0 0 1 -51.01-51zm-251.017 184.5a208.3 208.3 0 0 0 275.382.03c-11.265-66.97-69.877-117.053-137.696-117.053-67.789 0-126.4 50.073-137.686 117.029zm238.72-90.984a92.038 92.038 0 0 1 63.307-25.039c44.863 0 83.691 32.868 91.659 77a139.435 139.435 0 0 1 -91.659 34.182 145.24 145.24 0 0 1 -14.859-.778 153.5 153.5 0 0 0 -48.448-85.359z" fill="url(#GradientFill_1)" fill-rule="evenodd"/></svg>