<svg id="Layer_1" enable-background="new 0 0 512 512" viewBox="0 0 512 512" xmlns="http://www.w3.org/2000/svg" xmlns:xlink="http://www.w3.org/1999/xlink"><linearGradient id="SVGID_1_" gradientUnits="userSpaceOnUse" x1="255.744" x2="255.744" y1="27.515" y2="485.545"><stop offset="0" stop-color="#a03a8d"/><stop offset="1" stop-color="#1f3c8d"/></linearGradient><path clip-rule="evenodd" d="m215.64 87.24-19.45-19.45c-2.34-2.34-6.14-2.34-8.49 0-2.34 2.34-2.34 6.14 0 8.49l9.2 9.2h-106.23c-3.31 0-6 2.69-6 6v95.4c0 3.32 2.69 6 6 6s6-2.68 6-6v-89.4h100.24l-9.2 9.2c-2.34 2.35-2.34 6.15 0 8.49 2.35 2.35 6.14 2.35 8.49 0l19.45-19.45c2.33-2.35 2.33-6.14-.01-8.48zm80.21 330.13c-2.34 2.34-2.34 6.14 0 8.48l19.44 19.45c1.17 1.17 2.71 1.75 4.24 1.75 5.32 0 8.02-6.46 4.24-10.24l-9.2-9.2h106.24c3.32 0 6-2.69 6-6v-95.4c0-3.32-2.68-6-6-6-3.31 0-6 2.68-6 6v89.4h-100.23l9.2-9.2c2.34-2.35 2.34-6.15 0-8.49s-6.14-2.34-8.49 0zm-177.8-80.52-5.28-10.55-5.27 10.55zm43.21 16.43c0 3.31-2.69 6-6 6s-6-2.69-6-6v-41.02c0-3.32 2.69-6 6-6s6 2.68 6 6zm8.22 16.67c0 4.88-3.97 8.84-8.84 8.84h-73.75c-4.88 0-8.84-3.96-8.84-8.84v-73.74c0-4.88 3.97-8.84 8.84-8.84h73.74c4.88 0 8.84 3.96 8.84 8.84v73.74zm-30.83-18.73c1.48 2.97.28 6.57-2.68 8.05-2.95 1.48-6.55.31-8.05-2.68l-3.87-7.74h-22.55l-3.87 7.74c-1.48 2.96-5.09 4.16-8.05 2.68s-4.17-5.08-2.68-8.05l20.51-41.02c2.2-4.4 8.53-4.4 10.73 0zm90.32-15.35c.06.66.22 1.3.49 1.91l27.62 62.31v.01h-24.8c-3.31 0-6 2.69-6 6v40.05c0 5.16-4.2 9.35-9.35 9.35h-22.03c-7.36 0-13.34 5.99-13.34 13.35v16.69h-106.71c-1-49.73-46.78-96.82-48.07-145.03-1.5-56.2 39.54-84.01 57.25-93.36 26.44-13.96 63.77-12.67 92.89 3.2 21.36 11.64 47.72 35.93 52.05 85.52zm-31.96 27.75h-15.53v6.34c0 11.49-9.35 20.84-20.84 20.84h-6.35v15.54c0 3.31-2.69 6-6 6s-6-2.69-6-6v-15.54h-12.53v15.54c0 3.31-2.69 6-6 6s-6-2.69-6-6v-15.54h-12.52v15.54c0 3.31-2.69 6-6 6s-6-2.69-6-6v-15.54h-6.35c-11.49 0-20.84-9.35-20.84-20.84v-6.34h-15.53c-3.31 0-6-2.69-6-6 0-3.32 2.69-6 6-6h15.53v-12.53h-15.53c-3.31 0-6-2.69-6-6s2.69-6 6-6h15.53v-12.52h-15.53c-3.31 0-6-2.69-6-6 0-3.32 2.69-6 6-6h15.53v-6.35c0-11.49 9.35-20.84 20.84-20.84h6.35v-15.53c0-3.32 2.69-6 6-6s6 2.68 6 6v15.53h12.53v-15.53c0-3.32 2.69-6 6-6s6 2.68 6 6v15.53h12.53v-15.53c0-3.32 2.69-6 6-6s6 2.68 6 6v15.53h6.35c11.49 0 20.84 9.35 20.84 20.84v6.35h15.53c3.31 0 6 2.68 6 6 0 3.31-2.69 6-6 6h-15.53v12.52h15.53c3.31 0 6 2.69 6 6s-2.69 6-6 6h-15.53v12.53h15.53c3.31 0 6 2.68 6 6-.01 3.3-2.7 6-6.01 6zm137.55-323.25c-21.35 11.64-47.71 35.93-52.04 85.51-.06.66-.23 1.31-.49 1.91l-27.63 62.31 24.81.02c3.31 0 6 2.68 6 6v40.04c0 5.16 4.2 9.36 9.35 9.36h22.02c7.36 0 13.34 5.99 13.34 13.34v16.7h106.7c1-49.74 46.77-96.79 48.06-145.03 1.5-56.21-39.54-84.02-57.25-93.37-26.42-13.95-63.75-12.66-92.87 3.21zm-25.79 72.69c0-18.62 15.15-33.77 33.77-33.77.24 0 .48.01.71.02 4-16.91 19.21-29.54 37.33-29.54 13.59 0 26.1 7.23 32.97 18.73.39-.01.77-.02 1.16-.02 21.14 0 38.34 17.19 38.37 38.33 7.76 6.1 12.3 15.35 12.3 25.37 0 17.84-14.51 32.35-32.35 32.35-13.19 0-24.77-7.86-29.77-19.66-11.36 0-21.35-8.04-23.76-19.12-.7-3.24 1.35-6.44 4.59-7.14s6.43 1.35 7.14 4.59c1.22 5.6 6.28 9.67 12.03 9.67 6.22 0 11.47-4.65 12.22-10.81.4-3.28 3.39-5.63 6.68-5.23s5.63 3.39 5.23 6.68c-.96 7.94-5.72 14.59-12.31 18.27 3.46 6.51 10.28 10.75 17.96 10.75 11.22 0 20.35-9.13 20.35-20.35 0-3.94-1.11-7.68-3.14-10.88-.8 1.96-1.74 3.87-2.85 5.68-1.76 2.85-5.46 3.68-8.26 1.95-2.82-1.74-3.69-5.43-1.95-8.25 2.56-4.15 3.91-8.93 3.91-13.83 0-16.05-14.27-28.39-30.14-26.1-2.64.38-5.21-1.04-6.31-3.47-4.26-9.42-13.7-15.51-24.04-15.51-17.34 0-29.9 16.5-25.49 33.14.85 3.21-1.06 6.49-4.26 7.34s-6.49-1.06-7.34-4.26c-.58-2.19-.95-4.43-1.13-6.7-11.92.1-21.59 9.82-21.59 21.77 0 11.99 9.75 21.74 21.73 21.76 3.28-10.05 12.75-17.34 23.89-17.34 3.31 0 6 2.68 6 6 0 3.31-2.69 6-6 6-7.24 0-13.12 5.88-13.12 13.12 0 7.51 6.21 13.12 11.77 13.12h14.19c13.88 0 25.18 11.3 25.18 25.18v25.47c0 3.31-2.69 6-6 6s-6-2.69-6-6v-25.47c0-7.27-5.91-13.18-13.18-13.18h-14.19c-11.53 0-21.46-9.22-23.41-20.92-18.24-.49-32.89-15.42-32.89-33.74zm55.19-14.99c3.46-8.03 11.35-13.22 20.1-13.22 14.43 0 24.87 13.75 21.12 27.62-.88 3.23-4.2 5.07-7.36 4.22-3.2-.87-5.09-4.17-4.22-7.37 1.69-6.25-3.01-12.47-9.53-12.47-3.95 0-7.52 2.34-9.08 5.97-1.31 3.05-4.84 4.45-7.88 3.14-3.06-1.31-4.46-4.85-3.15-7.89z" fill="url(#SVGID_1_)" fill-rule="evenodd"/></svg>