<svg id="Gradient_Solid" enable-background="new 0 0 32 32" height="512" viewBox="0 0 32 32" width="512" xmlns="http://www.w3.org/2000/svg" xmlns:xlink="http://www.w3.org/1999/xlink"><linearGradient id="SVGID_1_" gradientUnits="userSpaceOnUse" x1="-.419" x2="28.915" y1="29.639" y2="-.694"><stop offset="0" stop-color="#0e5dd8"/><stop offset="1" stop-color="#eb55ff"/></linearGradient><path d="m20 12.5h-8v-4.5c0-2.209 1.791-4 4-4s4 1.791 4 4zm-8 3.5v-2h8v2c0 2.209-1.791 4-4 4s-4-1.791-4-4zm18-7v2c0 .414-.336.75-.75.75s-.75-.336-.75-.75v-2c0-.414.336-.75.75-.75s.75.336.75.75zm-3.25-1.25v4.5c0 .414-.336.75-.75.75s-.75-.336-.75-.75v-4.5c0-.414.336-.75.75-.75s.75.336.75.75zm-4.75 3.25v-2c0-.414.336-.75.75-.75s.75.336.75.75v2c0 .414-.336.75-.75.75s-.75-.336-.75-.75zm-18.5-2v2c0 .414-.336.75-.75.75s-.75-.336-.75-.75v-2c0-.414.336-.75.75-.75s.75.336.75.75zm3.25-1.25v4.5c0 .414-.336.75-.75.75s-.75-.336-.75-.75v-4.5c0-.414.336-.75.75-.75s.75.336.75.75zm1.75 3.25v-2c0-.414.336-.75.75-.75s.75.336.75.75v2c0 .414-.336.75-.75.75s-.75-.336-.75-.75zm15.419 6.141c-.511 3.576-3.403 6.34-6.919 6.788v2.071h1c.552 0 1 .448 1 1v1h-6v-1c0-.552.448-1 1-1h1v-2.071c-3.515-.448-6.407-3.212-6.919-6.787-.078-.547.302-1.053.849-1.131.549-.083 1.054.302 1.132.848.418 2.931 2.971 5.141 5.938 5.141s5.521-2.21 5.938-5.142c.078-.547.586-.927 1.132-.849.547.078.927.585.849 1.132z" fill="url(#SVGID_1_)"/></svg>