<svg id="Capa_1" enable-background="new 0 0 512 512" viewBox="0 0 512 512" xmlns="http://www.w3.org/2000/svg"><g><g><g><g><path d="m221.994 117.271h65.381v45.785h-65.381z" fill="#6354b1"/></g><g><path d="m255.164 117.271h32.211v45.785h-32.211z" fill="#54469c"/></g><g><path d="m314.25 118.324h-119.131c-22.091 0-40-17.909-40-40v-38.324c0-22.091 17.909-40 40-40h119.131c22.091 0 40 17.909 40 40v38.324c0 22.092-17.908 40-40 40z" fill="#8379c1"/></g><g><path d="m314.25 118.324h-119.131c-22.091 0-40-17.909-40-40v-38.324c0-22.091 17.909-40 40-40h119.131c22.091 0 40 17.909 40 40v38.324c0 22.092-17.908 40-40 40z" fill="#8379c1"/></g><g><path d="m317.098.201v59.406c0 11.379-9.225 20.604-20.604 20.604h-141.247c1.583 21.312 19.363 38.114 41.08 38.114h116.717c22.758 0 41.207-18.449 41.207-41.207v-35.91c-.001-21.39-16.299-38.97-37.153-41.007z" fill="#6e61b6"/></g><g><g><circle cx="213.319" cy="59.162" fill="#c8effe" r="21.048"/></g><g><circle cx="296.05" cy="59.162" fill="#c8effe" r="21.048"/></g><g><path d="m296.05 38.114c-3.901 0-7.541 1.08-10.674 2.93 6.202 3.662 10.375 10.395 10.375 18.119s-4.173 14.457-10.375 18.119c3.132 1.849 6.773 2.93 10.674 2.93 11.625 0 21.048-9.424 21.048-21.048s-9.423-21.05-21.048-21.05z" fill="#99e6fc"/></g><g><path d="m213.319 38.114c-3.901 0-7.541 1.08-10.674 2.93 6.202 3.662 10.375 10.395 10.375 18.119s-4.173 14.457-10.375 18.119c3.132 1.849 6.773 2.93 10.674 2.93 11.625 0 21.048-9.424 21.048-21.048s-9.423-21.05-21.048-21.05z" fill="#99e6fc"/></g></g><g><g><path d="m115.766 363.883c5.194 0 10.057 1.447 14.208 3.956v-52.47h-1.594c-3.444 2.808-7.834 4.498-12.614 4.498s-9.17-1.69-12.614-4.498h-1.594v52.47c4.151-2.51 9.013-3.956 14.208-3.956z" fill="#6354b1"/><g><path d="m101.558 216.135v68.238h1.594c3.444-2.808 7.834-4.498 12.614-4.498s9.17 1.69 12.614 4.498h1.594v-63.565h-12.695c-5.796 0-11.193-1.723-15.721-4.673z" fill="#6354b1"/></g></g><g><circle cx="115.766" cy="299.871" fill="#8379c1" r="21.048"/></g><g><path d="m396.234 363.883c5.194 0 10.057 1.446 14.208 3.956v-52.47h-1.594c-3.444 2.808-7.834 4.498-12.614 4.498s-9.17-1.69-12.614-4.498h-1.594v52.47c4.152-2.51 9.014-3.956 14.208-3.956z" fill="#6354b1"/><g><path d="m410.442 214.21c-4.993 4.12-11.388 6.598-18.351 6.598h-10.064v63.565h1.594c3.444-2.808 7.834-4.498 12.614-4.498s9.17 1.69 12.614 4.498h1.594v-70.163z" fill="#6354b1"/></g></g><g><circle cx="396.234" cy="299.871" fill="#8379c1" r="21.048"/></g><g><path d="m171.099 444.119h51.947v30.652h-51.947z" fill="#54469c"/></g><g><path d="m286.323 444.119h51.947v30.652h-51.947z" fill="#54469c"/></g><g><path d="m166.282 162.004h-49.003c-16.529 0-29.928 13.399-29.928 29.928 0 16.529 13.399 29.928 29.928 29.928h49.003z" fill="#c8effe"/></g><g><g><path d="m87.452 194.295c1.206 15.423 14.094 27.566 29.827 27.566h49.003v-27.566z" fill="#99e6fc"/></g></g><g><path d="m392.091 162.004h-49.003v59.856h49.003c16.529 0 29.928-13.399 29.928-29.928 0-16.529-13.4-29.928-29.928-29.928z" fill="#c8effe"/></g><g><path d="m406.722 165.827c-.762 15.85-13.852 28.468-29.891 28.468h-33.743v27.566h49.003c16.529 0 29.928-13.399 29.928-29.928 0-11.214-6.171-20.98-15.297-26.106z" fill="#99e6fc"/></g><g><path d="m221.994 378.342h65.381v96.429h-65.381z" fill="#c8effe"/></g><g><path d="m255.164 378.342v55.475c0 5.69-4.612 10.302-10.302 10.302h-22.869v30.652h65.381v-96.429z" fill="#99e6fc"/></g><g><path d="m374.229 512h-31.881c-2.821 0-5.108-2.287-5.108-5.108v-68.715c0-2.821 2.287-5.108 5.108-5.108h31.881c2.821 0 5.108 2.287 5.108 5.108v68.715c-.001 2.821-2.287 5.108-5.108 5.108z" fill="#8379c1"/></g><g><path d="m374.074 433.069h-16.372v52.158c0 2.906-2.356 5.262-5.262 5.262h-15.2v16.249c0 2.906 2.356 5.262 5.262 5.262h31.572c2.906 0 5.262-2.356 5.262-5.262v-68.407c0-2.906-2.355-5.262-5.262-5.262z" fill="#6e61b6"/></g><g><path d="m167.021 512h-31.881c-2.821 0-5.108-2.287-5.108-5.108v-68.715c0-2.821 2.287-5.108 5.108-5.108h31.881c2.821 0 5.108 2.287 5.108 5.108v68.715c0 2.821-2.287 5.108-5.108 5.108z" fill="#8379c1"/></g><g><path d="m166.867 433.069h-16.372v52.158c0 2.906-2.356 5.262-5.262 5.262h-15.201v16.249c0 2.906 2.356 5.262 5.262 5.262h31.572c2.906 0 5.262-2.356 5.262-5.262v-68.407c.001-2.906-2.355-5.262-5.261-5.262z" fill="#6e61b6"/></g><g><g><path d="m339.176 319.814c3.238-7.688 4.964-16.006 4.964-24.504v-133.306h-25.819l-1.966 1.406-21.868 37.876c-2.573 4.457-7.369 7.227-12.516 7.227h-54.57c-5.147 0-9.943-2.77-12.516-7.227l-21.868-37.876-1.966-1.406h-25.819v133.307c0 8.497 1.726 16.816 4.964 24.504h168.98z" fill="#8379c1"/></g><g><path d="m339.176 319.814c3.238-7.688 4.964-16.006 4.964-24.504v-133.306h-32.106v133.307c0 8.497-1.726 16.816-4.964 24.504h32.106z" fill="#6e61b6"/></g><g><path d="m306.253 319.844v-39.928c0-5.812-4.712-10.524-10.524-10.524h-82.089c-5.812 0-10.524 4.712-10.524 10.524v39.928z" fill="#c8effe"/></g><g><path d="m295.729 269.392h-21.471v50.452h31.995v-39.928c0-5.812-4.712-10.524-10.524-10.524z" fill="#99e6fc"/></g><g><path d="m221.994 379.394h65.381l38.928-40.101c5.777-5.951 10.263-12.922 13.294-20.479h-169.825c3.031 7.557 7.517 14.528 13.294 20.479z" fill="#6354b1"/></g><g><path d="m307.491 318.814c-3.031 7.557-7.517 14.528-13.294 20.479l-38.928 40.101h32.106l38.928-40.101c5.777-5.951 10.263-12.922 13.294-20.479z" fill="#54469c"/></g></g></g><g><path d="m191.049 162.004 22.968 39.782c2.76 4.781 7.862 7.726 13.382 7.726h54.57c5.521 0 10.622-2.945 13.382-7.726l22.968-39.782z" fill="#c8effe"/></g><g><path d="m286.15 162.004-27.429 47.509h23.249c5.521 0 10.622-2.945 13.382-7.726l22.968-39.782h-32.17z" fill="#99e6fc"/></g></g></g><g><g><path d="m417.283 412.747c-4.142 0-7.5-3.357-7.5-7.5v-13.816c0-7.471-6.078-13.548-13.548-13.548s-13.548 6.077-13.548 13.548v13.816c0 4.143-3.358 7.5-7.5 7.5s-7.5-3.357-7.5-7.5v-13.816c0-15.741 12.807-28.548 28.548-28.548s28.548 12.807 28.548 28.548v13.816c0 4.143-3.358 7.5-7.5 7.5z" fill="#99e6fc"/></g><g><path d="m136.814 412.747c-4.142 0-7.5-3.357-7.5-7.5v-13.816c0-7.471-6.078-13.548-13.548-13.548s-13.548 6.077-13.548 13.548v13.816c0 4.143-3.358 7.5-7.5 7.5s-7.5-3.357-7.5-7.5v-13.816c0-15.741 12.807-28.548 28.548-28.548s28.548 12.807 28.548 28.548v13.816c0 4.143-3.358 7.5-7.5 7.5z" fill="#99e6fc"/></g></g></g><g/><g/><g/><g/><g/><g/><g/><g/><g/><g/><g/><g/><g/><g/><g/></svg>