<svg id="Layer_1" enable-background="new 0 0 512 512" viewBox="0 0 512 512" xmlns="http://www.w3.org/2000/svg" xmlns:xlink="http://www.w3.org/1999/xlink"><linearGradient id="SVGID_1_" gradientUnits="userSpaceOnUse" x1="56.895" x2="410.637" y1="454.958" y2="101.217"><stop offset="0" stop-color="#804ff4"/><stop offset=".1316" stop-color="#6f64f4"/><stop offset=".3531" stop-color="#5881f4"/><stop offset=".5735" stop-color="#4795f4"/><stop offset=".7906" stop-color="#3da2f4"/><stop offset="1" stop-color="#3aa6f4"/></linearGradient><path d="m510.1 386-114.8-114.7c-2.3-2.3-6.1-2.3-8.5 0-7.5 7.5-27.5 27.6-34.7 34.7l-26.5-26.4 69.9-70c18.8 8.1 33-16.7 17.1-29.5 47.7-55.1-26.1-128.8-81.2-81.1-12.7-15.9-37.6-1.7-29.5 17.1l-69.9 70-26.5-26.4c7.1-7.1 27.3-27.4 34.7-34.8 2.3-2.3 2.3-6.1 0-8.5l-114.6-114.4c-2.3-2.3-6.1-2.3-8.5 0-26.7 26.5-68.4 68.6-95.4 95.5-2.3 2.2-2.3 6.2 0 8.5l114.8 114.6c2.3 2.3 6.1 2.3 8.5 0 7.5-7.5 27.5-27.6 34.7-34.7l26.5 26.4-44.7 44.7c-17-7.8-32.3 14.3-19 27.5 0 0 28.1 28.1 28.1 28.1l-19.6 19.6c-38.9-25.5-91.8-20.3-125 13.1-13.4-14.8-35.1 5-21.5 19.6 0 0 37 37 37 37-10.5 39.9 29 79.5 68.8 68.7l37 36.9c14.7 13.7 34.4-8 19.6-21.5 33.2-32 38.8-87.1 12.9-125l19.5-19.6 28.1 28.1c6.3 6.6 17.7 6.6 24.1 0 5.1-5.2 6.2-12.8 3.4-19.1l44.6-44.7 26.5 26.4c-7.1 7.1-27.3 27.4-34.7 34.7-2.3 2.2-2.3 6.2 0 8.5l114.9 114.7c2.3 2.3 6.1 2.3 8.5 0 26.7-26.6 68.4-68.6 95.4-95.5 2.3-2.3 2.3-6.3 0-8.5zm-139.9-290c38.6-.7 60.2 47.5 34 75.8l-64.3-64.2c8.3-7.5 18.9-11.8 30.3-11.6zm-56.3 9.7c5.2-4.8 9.8 3.2 13.2 6.1l36.4 36.4 42.5 42.5c4.6 4.7-2.4 11.8-7.1 7.1l-42.5-42.5-42.5-42.5c-2-1.8-2-5.2 0-7.1zm-192.6-91 106.3 106.2-15.4 15.4-106.3-106.2zm-23.8 23.8 106.3 106.2-15.4 15.4-106.3-106.1zm43.2 169.4-106.3-106.2 15.4-15.4 106.3 106.2zm23.9-23.9-106.4-106.2 15.4-15.4 106.4 106.2c-3 3-12.3 12.3-15.4 15.4zm23.5-6.6 4.5-4.6 4.5-4.5 26.5 26.4-9.1 9.1zm-122.8 269.4c-9.3-9.3-14-21.9-13.3-34.7l48 47.9c-12.7.8-25.4-3.9-34.7-13.2zm94.1 52.2c-1 1-2.6 1-3.6 0-23.6-23.6-79.3-79.2-103.5-103.4l-39.3-39.3c-1.1-1.4-1-2.2 0-3.6 1-1 2.6-1 3.6 0l142.8 142.7c1.1 1.4 1.1 2.2 0 3.6zm-.9-21.5-124-123.8.1-.1c33.4-33.9 90.5-34 123.9-.1 34 32.6 34.1 91.4 0 124zm14.2-126.3c-3.6-4.2-7.7-8.3-11.9-11.9l18.2-18.3 11.9 11.9zm70.4 9.8c-1.9 1.9-5.2 1.9-7.1 0l-32.4-32.3-1.3-1.3-51.4-51.4c-2-2-2-5.2 0-7.1 1.9-1.9 5.3-1.9 7.2 0l85.1 85c1.9 1.9 1.9 5.1-.1 7.1zm4.3-19.9-76.6-76.5 48.1-48.1 6.3-6.3 84.5-84.6 76.6 76.5c-37.8 37.8-101.6 101.7-138.9 139zm60.7-43.9 9.1-9.1 26.5 26.4c-2.5 2.5-6.6 6.6-9.1 9.1zm102.3 180.1-106.3-106.2 15.4-15.4 106.3 106.2zm23.9-23.9-106.3-106.2 15.4-15.4 106.3 106.2zm23.8-23.9-106.3-106.2 15.4-15.4 106.3 106.2zm23.9-23.9-106.3-106.2 15.4-15.4 106.3 106.2zm-123-207.3-45.5-45.5c-1.1-1.1-2.6-1.8-4.2-1.8s-3.1.6-4.2 1.8l-15.2 15.2c-2.3 2.3-2.3 6.1 0 8.5l45.5 45.5c2.2 2.3 6.2 2.3 8.5 0l15.1-15.1c2.3-2.5 2.3-6.3 0-8.6zm-19.4 10.9-37.1-37 6.6-6.6 37 37z" fill="url(#SVGID_1_)"/></svg>