<svg id="Layer_1" enable-background="new 0 0 512 512" viewBox="0 0 512 512" xmlns="http://www.w3.org/2000/svg" xmlns:xlink="http://www.w3.org/1999/xlink"><linearGradient id="SVGID_1_" gradientUnits="userSpaceOnUse" x1="256" x2="256" y1="0" y2="512"><stop offset="0" stop-color="#f704fe"/><stop offset="1" stop-color="#24bce3"/></linearGradient><circle cx="256" cy="256" fill="url(#SVGID_1_)" r="256"/><g><g><g id="XMLID_1_" fill="#fffffe"><path d="m370 310.7c0 3.8-3.1 6.9-6.9 6.9-3.5 0-6.5-2.7-6.8-6.1.1-.3.1-.5.1-.8s0-.5-.1-.8c.4-3.4 3.3-6.1 6.8-6.1 3.8 0 6.8 3.1 6.9 6.9z"/><path d="m328.8 352.5c0 3.8-3.1 6.9-6.9 6.9-3.6 0-6.6-2.8-6.9-6.3.1-.1.1-.3.1-.5s0-.3-.1-.5c.3-3.5 3.2-6.3 6.9-6.3 3.7-.2 6.9 2.8 6.9 6.7z"/><path d="m256 209.7c28.8 0 52.3 23.4 52.3 52.3v1.2c-.3 16-7.9 30.2-19.6 39.5-6.7 5.4-14.7 9.1-23.5 10.7-.3 0-.6.1-1 .1-2.7.4-5.5.7-8.3.7-2.9 0-5.7-.2-8.4-.7-.2-.1-.5-.1-.8-.1-8.8-1.6-16.9-5.3-23.6-10.7-11.6-9.4-19.2-23.6-19.6-39.5 0-.4 0-.9 0-1.3.2-28.7 23.7-52.2 52.5-52.2zm42.1 52.3c0-23.2-18.8-42.1-42.1-42.1s-42.1 18.8-42.1 42.1c0 23.2 18.9 42.1 42.1 42.1s42.1-18.9 42.1-42.1z"/><path d="m256 226.6c19.5 0 35.4 15.8 35.4 35.4s-15.8 35.4-35.4 35.4-35.4-15.8-35.4-35.4c0-19.5 15.9-35.4 35.4-35.4zm22.3 23.8c1.3-1.3 1.3-3.4 0-4.7s-3.4-1.3-4.7 0l-25.4 25.5-9.9-9.9c-1.3-1.3-3.4-1.3-4.7 0s-1.3 3.4 0 4.7l12.3 12.3c.7.6 1.5 1 2.4 1s1.7-.3 2.3-1z"/><path d="m267.1 341.4v43.3c0 6.2-5 11.3-11.1 11.3-6.2 0-11.3-5.1-11.3-11.3v-43.3h1.3c.2.1.5.1.7.1s.5 0 .7-.1h17.3c.2.1.5.1.7.1s.5 0 .7-.1z"/><path d="m261.9 320.7v14h-11.9v-14c2 .2 4 .3 6 .3s4-.1 5.9-.3z"/><path d="m197 351.9c-.1.1-.1.3-.1.5s0 .3.1.5c-.3 3.5-3.2 6.3-6.9 6.3-3.8 0-6.9-3.1-6.9-6.9s3.1-6.9 6.9-6.9c3.6.2 6.6 3 6.9 6.5z"/><path d="m155.7 309.9c-.1.3-.1.5-.1.8s.1.5.1.8c-.3 3.5-3.3 6.1-6.9 6.1-3.8 0-6.9-3.1-6.9-6.9s3.1-6.9 6.9-6.9c3.6 0 6.5 2.6 6.9 6.1z"/><path d="m359.2 188.4c19.7 0 35.7 16 35.7 35.8 0 19.7-16 35.7-35.7 35.7h-27.2-17.1c-1.1-31.5-27.2-56.9-58.9-56.9-31.8 0-57.9 25.4-58.9 56.9h-16.4c-.2-.1-.5-.1-.7-.1s-.5 0-.7.1h-26.6c-19.7 0-35.7-16-35.7-35.7s16-35.7 35.7-35.7c.9 0 1.8-.3 2.4-1 .7-.7 1-1.6 1-2.5-.5-12 3.5-23.1 11.3-31.2 7.6-7.9 18.2-12.4 29.1-12.4 5.8 0 11.7 1.4 17.4 4 .8.4 1.8.4 2.7 0 .9-.3 1.6-1.1 1.8-2 5.1-16.5 20.1-27.6 37.5-27.6 17.3 0 32.4 11.1 37.5 27.4.3.9 1 1.6 1.9 2s1.9.3 2.8-.1c5.3-2.6 11.1-4 17.3-4 10.9 0 21.5 4.5 29 12.4 7.8 8.1 11.8 19.2 11.3 31.3 0 .9.3 1.8 1 2.5.7.8 1.6 1.1 2.5 1.1zm-19.2-5.2c.3-9.8-3.5-16-6.9-19.5-4.6-4.6-11.1-7.4-17.6-7.4-3.8 0-7.2.8-10.4 2.3-1.6.9-2.3 2.9-1.5 4.5.9 1.6 2.9 2.3 4.5 1.5 2.2-1.1 4.6-1.6 7.4-1.6 4.7 0 9.6 2 12.8 5.4 3.5 3.7 5.2 8.6 5 14.6-.1 1.8 1.4 3.3 3.2 3.4h.1c1.8 0 3.3-1.4 3.4-3.2zm-131.7-19.8c.8-1.7.1-3.7-1.5-4.5-3.1-1.5-6.6-2.3-10.4-2.3-6.6 0-13 2.7-17.6 7.4-2.7 2.8-7.2 9-6.9 19.5.1 1.8 1.6 3.2 3.3 3.2.1 0 .1 0 .1-.1 1.8 0 3.3-1.6 3.2-3.4-.3-8 3-12.6 5-14.5 3.4-3.4 8.1-5.4 12.8-5.4 2.7 0 5.1.5 7.4 1.6 1.9.8 3.8.1 4.6-1.5z"/><path d="m335.3 307.3h14.7c-.3 1.1-.4 2.3-.4 3.4s.1 2.3.4 3.3h-15.9c-3 0-5.5-2.5-5.5-5.5v-41.9h6.7z"/><path d="m294.2 349.1h14.6c-.3 1.1-.4 2.2-.4 3.3s.1 2.3.4 3.3h-15.2c-3.3 0-6.1-2.8-6.1-6.1v-37.9c2.3-1.5 4.6-3.1 6.7-4.9z"/><path d="m224.5 311.8v37.9c0 3.3-2.8 6.1-6.1 6.1h-15.2c.3-1.1.4-2.2.4-3.3s-.1-2.3-.4-3.3h14.6v-42.2c2.2 1.7 4.4 3.3 6.7 4.8z"/><path d="m183.4 266.6v41.8c0 3-2.5 5.5-5.5 5.5h-15.8c.3-1.1.4-2.2.4-3.3s-.1-2.3-.4-3.3h14.6v-40.6h6.7z"/></g></g></g></svg>