<svg id="Layer_1" height="512" viewBox="0 0 512 512" width="512" xmlns="http://www.w3.org/2000/svg" data-name="Layer 1"><g fill-rule="evenodd"><path d="m186.462 61.478c2.742.553 4.808 2.976 4.808 5.881 0 3.314-2.686 6-6 6-.641 0-1.258-.101-1.837-.287-35.454-9.415-71.548-3.521-101.168 13.58-29.632 17.108-52.79 45.424-62.36 80.836-.582 2.704-2.987 4.731-5.865 4.731-3.314 0-6-2.686-6-6s.007 0 .007 0c0-.511.066-1.03.204-1.547 10.378-38.732 35.653-69.695 68.014-88.379 32.27-18.631 71.584-25.058 110.197-14.815zm-17.952 67.238c-20.147-5.313-40.653-1.948-57.491 7.774-.117.068-.23.139-.34.213-16.754 9.795-29.824 25.891-35.207 45.98-.034.125-.062.251-.087.377l-.007-.002v.002c-.647 3.249 1.462 6.407 4.711 7.055 3.2.638 6.313-1.4 7.024-4.567 4.581-16.846 15.556-30.331 29.601-38.534.102-.052.204-.106.304-.164 14.185-8.19 31.467-11.023 48.451-6.541.2.062.404.114.614.156h.001c3.249.647 6.407-1.462 7.055-4.711.642-3.222-1.428-6.354-4.63-7.038zm9.629-33.417c-.111-.037-.222-.07-.333-.1l.005-.018c-29.484-7.9-59.523-3.018-84.168 11.21-24.636 14.223-43.879 37.798-51.78 67.286-.854 3.197 1.045 6.482 4.242 7.336s6.482-1.045 7.336-4.242c7.047-26.298 24.217-47.327 46.202-60.02 21.977-12.688 48.77-17.04 75.074-9.992l.005-.018c3.035.814 6.216-.874 7.215-3.896 1.035-3.132-.664-6.512-3.797-7.547z" fill="#2dcffc"/><g><path d="m209.611 179.151c4.46-54.612 52.046-95.46 106.702-91.595 54.657 3.864 96.021 51.002 92.752 105.697 52.192 0 94.895 42.703 94.895 94.895s-42.702 94.895-94.895 94.895h-309.857c-37.779-.298-68.247-31.007-68.247-68.787s30.468-68.489 68.247-68.787c-9.189-36.426 14.648-74.602 48.675-82.637 20.592-4.863 44.484.665 61.728 16.319z" fill="#2a93fc"/><path d="m409.066 193.254c52.192 0 94.895 42.702 94.895 94.894s-42.702 94.895-94.895 94.895h-276.918c-37.778-.297-68.247-31.007-68.247-68.787s30.469-68.489 68.247-68.787c-10.712-68.845 68.1-83.026 93.39-43.876 13.682-125.532 175.883-118.449 183.527-8.34z" fill="#5caeff"/></g><path d="m291.614 122.1c-3.249.595-6.365-1.556-6.961-4.805s1.556-6.365 4.805-6.961c1.592-.294 3.154-.546 4.682-.754 23.485-3.201 44.534 2.588 60.678 14.229 16.197 11.68 27.406 29.229 31.157 49.5.239 1.29.445 2.569.617 3.835.44 3.275-1.858 6.286-5.133 6.726s-6.286-1.858-6.726-5.133c-.153-1.122-.328-2.213-.524-3.273-3.182-17.197-12.671-32.07-26.376-41.953-13.758-9.921-31.821-14.837-52.1-12.073-1.385.189-2.759.409-4.12.66z" fill="#bddfff"/><path d="m190.741 223.445c36.711 0 66.747 30.036 66.747 66.747v42.542h-25.427v-42.542c0-22.676-18.644-41.32-41.32-41.32s-41.32 18.644-41.32 41.32v42.542h-25.427v-42.542c0-36.711 30.036-66.747 66.747-66.747z" fill="#bddfff"/><path d="m195.241 223.601c34.633 2.335 62.247 31.392 62.247 66.591v42.542h-16.427v-42.542c0-22.676-18.644-41.32-41.32-41.32-1.52 0-3.021.086-4.5.249-1.479-.163-2.98-.249-4.5-.249-22.676 0-41.32 18.644-41.32 41.32v42.542h-16.427v-42.542c0-35.199 27.614-64.257 62.247-66.591z" fill="#fff"/></g><rect fill="#f9ac00" height="144.62" rx="16.687" width="190.708" x="95.387" y="310.76"/><rect fill="#fdc72e" height="144.62" rx="16.687" width="174.395" x="111.7" y="310.76"/><g fill-rule="evenodd"><path d="m379.785 310.38-57.801 19.467c-2.668.899-4.388 3.292-4.388 6.107v53.26c0 34.728 36.149 49.142 62.189 66.166 26.04-17.024 62.189-31.438 62.189-66.166v-53.26c0-2.815-1.719-5.209-4.388-6.107z" fill="#2dd62d"/><path d="m379.785 310.38-57.801 19.467c-2.668.898-4.387 3.292-4.387 6.107v53.26c0 34.728 36.148 49.142 62.189 66.166v-145z" fill="#00ab0b"/><path d="m379.785 310.38-52.475 17.673v.14s-.001 60.697-.001 60.697c0 24.636 14.007 40.301 30.863 53.297 7.345 4.491 14.822 8.753 21.612 13.192v-145z" fill="#29b933"/></g><path d="m347.533 376.88c-1.372-3.003-.05-6.55 2.953-7.922s6.55-.05 7.922 2.953l9.605 21.04 40.128-40.128c2.342-2.343 6.141-2.343 8.484 0s2.343 6.142 0 8.484l-46.222 46.223-.014-.014c-.491.491-1.075.904-1.744 1.21-3.003 1.372-6.55.05-7.922-2.953z" fill="#fff" fill-rule="evenodd"/><path d="m198.241 343.178c10.791 0 19.539 8.748 19.539 19.539 0 7.563-4.298 14.122-10.584 17.37v33.921c0 4.925-4.03 8.956-8.955 8.956-4.925 0-8.955-4.03-8.955-8.956v-33.92c-6.286-3.248-10.584-9.807-10.584-17.37 0-10.791 8.748-19.539 19.539-19.539z" fill="#f9ac00" fill-rule="evenodd"/><path d="m190.741 343.178c10.791 0 19.539 8.748 19.539 19.539 0 7.563-4.298 14.122-10.584 17.37v33.921c0 4.925-4.03 8.956-8.955 8.956-4.926 0-8.956-4.03-8.956-8.956v-33.92c-6.286-3.248-10.584-9.807-10.584-17.37 0-10.791 8.748-19.539 19.539-19.539z" fill="#fff" fill-rule="evenodd"/></svg>