<svg id="Capa_1" enable-background="new 0 0 512 512" viewBox="0 0 512 512" xmlns="http://www.w3.org/2000/svg" xmlns:xlink="http://www.w3.org/1999/xlink"><linearGradient id="SVGID_1_" gradientUnits="userSpaceOnUse" x1="138.541" x2="463.681" y1="146.719" y2="471.859"><stop offset="0" stop-color="#b3dafe"/><stop offset="1" stop-color="#0182fc"/></linearGradient><linearGradient id="lg1"><stop offset="0" stop-color="#314dc9" stop-opacity="0"/><stop offset=".2761" stop-color="#304bc4" stop-opacity=".276"/><stop offset=".5628" stop-color="#2b45b8" stop-opacity=".563"/><stop offset=".8535" stop-color="#243ba3" stop-opacity=".854"/><stop offset="1" stop-color="#1f3596"/></linearGradient><linearGradient id="SVGID_00000118385000655247662750000012849862351903844257_" gradientUnits="userSpaceOnUse" x1="396.591" x2="211.245" xlink:href="#lg1" y1="397.747" y2="220.954"/><linearGradient id="SVGID_00000024687243478137248910000013358744019879061904_" gradientUnits="userSpaceOnUse" x1="256" x2="256" xlink:href="#lg1" y1="436.436" y2="515.116"/><linearGradient id="SVGID_00000143609343523867837470000010828688578801120134_" gradientUnits="userSpaceOnUse" x1="371.295" x2="470.945" xlink:href="#lg1" y1="264.178" y2="264.178"/><linearGradient id="SVGID_00000103235336998680504490000005653419543923514512_" gradientUnits="userSpaceOnUse" x1="365" x2="310.803" xlink:href="#lg1" y1="52.807" y2="52.807"/><linearGradient id="SVGID_00000106129137289633234550000003868700035209249694_" gradientUnits="userSpaceOnUse" x1="155.44" x2="433.801" y1="162.069" y2="440.43"><stop offset="0" stop-color="#f5fbff"/><stop offset="1" stop-color="#dbd5ef"/></linearGradient><linearGradient id="lg2"><stop offset="0" stop-color="#dbd5ef" stop-opacity="0"/><stop offset=".2853" stop-color="#d9d2ee" stop-opacity=".285"/><stop offset=".4739" stop-color="#d4c9e9" stop-opacity=".474"/><stop offset=".6346" stop-color="#cbbae2" stop-opacity=".635"/><stop offset=".7795" stop-color="#bfa5d7" stop-opacity=".78"/><stop offset=".9126" stop-color="#af8aca" stop-opacity=".913"/><stop offset="1" stop-color="#a274bf"/></linearGradient><linearGradient id="SVGID_00000008854444020656276430000014796054900998315677_" gradientUnits="userSpaceOnUse" x1="256" x2="256" xlink:href="#lg2" y1="415.098" y2="484.739"/><linearGradient id="SVGID_00000009553873737261560780000016491419938797080469_" gradientUnits="userSpaceOnUse" x1="353.854" x2="433.106" xlink:href="#lg2" y1="262.629" y2="262.629"/><linearGradient id="SVGID_00000176028305155012363910000007537329260918008503_" gradientUnits="userSpaceOnUse" x1="302.994" x2="261.647" xlink:href="#lg2" y1="300.684" y2="165.951"/><linearGradient id="SVGID_00000134931795828469157330000004195501940787271833_" gradientUnits="userSpaceOnUse" x1="256" x2="256" xlink:href="#lg2" y1="85.337" y2="62.425"/><linearGradient id="SVGID_00000048498975394212675400000003403912936248540811_" gradientUnits="userSpaceOnUse" x1="232.05" x2="206.384" xlink:href="#lg2" y1="66.106" y2="66.106"/><linearGradient id="SVGID_00000122693113330145985140000006293363330911533223_" gradientUnits="userSpaceOnUse" x1="353.981" x2="294.813" xlink:href="#lg2" y1="151.111" y2="51.309"/><linearGradient id="SVGID_00000085931704630878013080000001202844344956999828_" gradientUnits="userSpaceOnUse" x1="256" x2="256" y1="87.951" y2="100.782"><stop offset="0" stop-color="#5a5a5a"/><stop offset="1" stop-color="#444"/></linearGradient><linearGradient id="lg3"><stop offset="0" stop-color="#433f43" stop-opacity="0"/><stop offset="1" stop-color="#1a1a1a"/></linearGradient><linearGradient id="SVGID_00000013891243955398806350000003214786802736635808_" gradientUnits="userSpaceOnUse" x1="256" x2="256" xlink:href="#lg3" y1="89.376" y2="99.356"/><linearGradient id="SVGID_00000143590192130903231920000000348749540333076879_" gradientUnits="userSpaceOnUse" x1="256" x2="256" xlink:href="#lg3" y1="77.733" y2="61.099"/><linearGradient id="SVGID_00000003062754282968841980000003110702462991100311_" gradientUnits="userSpaceOnUse" x1="300.287" x2="317.396" xlink:href="#lg3" y1="72.646" y2="79.537"/><linearGradient id="lg4"><stop offset="0" stop-color="#fef0ae"/><stop offset="1" stop-color="#fac600"/></linearGradient><linearGradient id="SVGID_00000092456672614207660180000009835318860754873504_" gradientUnits="userSpaceOnUse" x1="256" x2="256" xlink:href="#lg4" y1="10.702" y2="56.908"/><linearGradient id="lg5"><stop offset="0" stop-color="#fe9738" stop-opacity="0"/><stop offset="1" stop-color="#fe9738"/></linearGradient><linearGradient id="SVGID_00000139998141196409115880000004674395136666396299_" gradientUnits="userSpaceOnUse" x1="295.992" x2="324.172" xlink:href="#lg5" y1="42.641" y2="56.877"/><linearGradient id="SVGID_00000052066812649655494990000010256025574385595039_" gradientUnits="userSpaceOnUse" x1="256" x2="256" xlink:href="#lg5" y1="36.88" y2="65.789"/><linearGradient id="SVGID_00000152259440142244380170000001319280751688473493_" gradientUnits="userSpaceOnUse" x1="298.941" x2="300.367" xlink:href="#lg2" y1="139.261" y2="349.558"/><linearGradient id="SVGID_00000040543508963806956520000002000171424093216179_" gradientUnits="userSpaceOnUse" x1="298.941" x2="300.367" xlink:href="#lg2" y1="183.374" y2="393.671"/><linearGradient id="SVGID_00000036213633184939640160000004413785822554055568_" gradientUnits="userSpaceOnUse" x1="298.941" x2="300.367" xlink:href="#lg2" y1="227.487" y2="437.784"/><linearGradient id="SVGID_00000183948144931417836070000017210793193953297587_" gradientUnits="userSpaceOnUse" x1="298.941" x2="300.367" xlink:href="#lg2" y1="271.6" y2="481.897"/><linearGradient id="SVGID_00000085931848122238041730000005943322952743299511_" gradientUnits="userSpaceOnUse" x1="50.638" x2="177.529" xlink:href="#lg2" y1="205.493" y2="358.761"/><linearGradient id="SVGID_00000149367805661907547430000012922086216884112811_" gradientUnits="userSpaceOnUse" x1="237.734" x2="177.558" xlink:href="#lg2" y1="373.118" y2="312.942"/><linearGradient id="SVGID_00000117665325908634468470000018039319114433634190_" gradientUnits="userSpaceOnUse" x1="167.278" x2="175.832" y1="295.88" y2="340.434"><stop offset="0" stop-color="#bbec6c"/><stop offset=".2886" stop-color="#abdc59"/><stop offset=".866" stop-color="#82b32a"/><stop offset="1" stop-color="#78a91f"/></linearGradient><linearGradient id="SVGID_00000140725086703265796580000014534270817935527069_" gradientUnits="userSpaceOnUse" x1="177.496" x2="185.933" y1="312.88" y2="321.316"><stop offset="0" stop-color="#334c0f" stop-opacity="0"/><stop offset=".3197" stop-color="#344c12" stop-opacity=".32"/><stop offset=".5654" stop-color="#374a1c" stop-opacity=".565"/><stop offset=".7856" stop-color="#3c482c" stop-opacity=".786"/><stop offset=".9909" stop-color="#444443" stop-opacity=".991"/><stop offset="1" stop-color="#444"/></linearGradient><linearGradient id="SVGID_00000006687128275837541560000018275668276958670772_" gradientUnits="userSpaceOnUse" x1="243.933" x2="281.002" y1="152.442" y2="272.918"><stop offset="0" stop-color="#ffa1ae"/><stop offset="1" stop-color="#ff4565"/></linearGradient><linearGradient id="SVGID_00000096771867077028603490000004106625176706849707_" gradientUnits="userSpaceOnUse" x1="314.428" x2="324.663" y1="205.413" y2="215.648"><stop offset="0" stop-color="#fe0364" stop-opacity="0"/><stop offset=".2343" stop-color="#f90362" stop-opacity=".234"/><stop offset=".5173" stop-color="#ea035b" stop-opacity=".517"/><stop offset=".8243" stop-color="#d20250" stop-opacity=".824"/><stop offset="1" stop-color="#c00148"/></linearGradient><linearGradient id="SVGID_00000075120704187668413260000003364157786395635106_" gradientUnits="userSpaceOnUse" x1="126.71" x2="140.106" xlink:href="#lg4" y1="218.247" y2="231.643"/><linearGradient id="SVGID_00000137846898618600943820000007149748922424062111_" gradientUnits="userSpaceOnUse" x1="135.347" x2="135.347" xlink:href="#lg5" y1="226.057" y2="243.546"/><linearGradient id="SVGID_00000018937953561639823220000009067634293188533436_" gradientUnits="userSpaceOnUse" x1="134.306" x2="148.276" xlink:href="#lg5" y1="225.986" y2="238.037"/><linearGradient id="SVGID_00000150817968406131031210000014324576589280656264_" gradientUnits="userSpaceOnUse" x1="368.017" x2="381.413" xlink:href="#lg4" y1="146.247" y2="159.643"/><linearGradient id="SVGID_00000176740346040712065220000014562056473471767169_" gradientUnits="userSpaceOnUse" x1="376.654" x2="376.654" xlink:href="#lg5" y1="154.057" y2="171.546"/><linearGradient id="SVGID_00000178905574153962520590000012261740649061632191_" gradientUnits="userSpaceOnUse" x1="375.612" x2="389.583" xlink:href="#lg5" y1="153.986" y2="166.037"/><g><g><path d="m416.222 512h-320.444c-25.544 0-46.252-20.708-46.252-46.252v-403.14c0-25.544 20.708-46.252 46.252-46.252h320.444c25.544 0 46.252 20.708 46.252 46.252v403.141c-.001 25.543-20.708 46.251-46.252 46.251z" fill="url(#SVGID_1_)"/><path d="m415.748 56.706-317.204 414.164 41.13 41.13h276.547c25.544 0 46.252-20.708 46.252-46.251v-362.317z" fill="url(#SVGID_00000118385000655247662750000012849862351903844257_)"/><path d="m49.527 270.289v195.459c0 25.544 20.708 46.252 46.252 46.252h320.444c25.544 0 46.252-20.708 46.252-46.252v-195.459z" fill="url(#SVGID_00000024687243478137248910000013358744019879061904_)"/><path d="m416.222 16.356h-229.534v495.644h229.534c25.544 0 46.252-20.708 46.252-46.252v-403.14c-.001-25.544-20.708-46.252-46.252-46.252z" fill="url(#SVGID_00000143609343523867837470000010828688578801120134_)"/><path d="m416.222 16.356h-133.559v72.901h179.81v-26.65c0-25.544-20.707-46.251-46.251-46.251z" fill="url(#SVGID_00000103235336998680504490000005653419543923514512_)"/></g><g><path d="m385.43 481.98h-258.86c-22.609 0-40.938-18.329-40.938-40.938v-356.827c0-22.609 18.329-40.938 40.938-40.938h258.86c22.609 0 40.938 18.329 40.938 40.938v356.827c0 22.61-18.328 40.938-40.938 40.938z" fill="url(#SVGID_00000106129137289633234550000003868700035209249694_)"/><path d="m85.632 268.038v173.004c0 22.61 18.329 40.938 40.938 40.938h258.86c22.609 0 40.938-18.329 40.938-40.938v-173.004z" fill="url(#SVGID_00000008854444020656276430000014796054900998315677_)"/><path d="m385.43 43.277h-178.395v438.703h178.395c22.609 0 40.938-18.329 40.938-40.938v-356.827c0-22.609-18.328-40.938-40.938-40.938z" fill="url(#SVGID_00000009553873737261560780000016491419938797080469_)"/></g><path d="m387.995 143.542-113.491 113.49c-5.847 5.847-15.327 5.847-21.175 0l-63.749-63.749c-4.835-4.835-12.638-4.951-17.613-.261l-47.963 45.203 243.755 243.755h17.671c22.609 0 40.938-18.329 40.938-40.938v-259.126z" fill="url(#SVGID_00000176028305155012363910000007537329260918008503_)"/><path d="m200.845 41.172h110.311v49.868h-110.311z" fill="url(#SVGID_00000134931795828469157330000004195501940787271833_)"/><path d="m200.845 41.172h110.311v49.868h-110.311z" fill="url(#SVGID_00000048498975394212675400000003403912936248540811_)"/><path d="m426.368 84.215c0-22.609-18.329-40.938-40.938-40.938h-74.654v23.263c0 14.988-12.15 27.138-27.138 27.138h-82.414l225.144 225.144z" fill="url(#SVGID_00000122693113330145985140000006293363330911533223_)"/><g><path d="m291.05 101.272h-70.099c-16.255 0-29.48-13.225-29.48-29.479v-37.917h129.06v37.916c-.001 16.255-13.226 29.48-29.481 29.48zm-84.58-52.396v22.916c0 7.984 6.496 14.479 14.48 14.479h70.099c7.984 0 14.48-6.495 14.48-14.479v-22.916z" fill="url(#SVGID_00000085931704630878013080000001202844344956999828_)"/></g><g><path d="m291.05 101.272h-70.099c-16.255 0-29.48-13.225-29.48-29.479v-37.917h129.06v37.916c-.001 16.255-13.226 29.48-29.481 29.48zm-84.58-52.396v22.916c0 7.984 6.496 14.479 14.48 14.479h70.099c7.984 0 14.48-6.495 14.48-14.479v-22.916z" fill="url(#SVGID_00000013891243955398806350000003214786802736635808_)"/></g><g><path d="m291.05 101.272h-70.099c-16.255 0-29.48-13.225-29.48-29.479v-37.917h129.06v37.916c-.001 16.255-13.226 29.48-29.481 29.48zm-84.58-52.396v22.916c0 7.984 6.496 14.479 14.48 14.479h70.099c7.984 0 14.48-6.495 14.48-14.479v-22.916z" fill="url(#SVGID_00000143590192130903231920000000348749540333076879_)"/></g><path d="m254.861 48.876h50.668v22.916c0 7.984-6.496 14.479-14.48 14.479h-36.188v15h36.188c16.255 0 29.48-13.225 29.48-29.479v-37.916h-65.668z" fill="url(#SVGID_00000003062754282968841980000003110702462991100311_)"/><g><path d="m314.028 63.916h-116.056c-8.759 0-15.859-11.74-15.859-26.221 0-12.397 5.251-23.101 12.588-25.658l8.36-2.913c34.909-12.165 70.969-12.165 105.878 0l8.36 2.913c7.337 2.557 12.588 13.26 12.588 25.658 0 14.482-7.1 26.221-15.859 26.221z" fill="url(#SVGID_00000092456672614207660180000009835318860754873504_)"/><path d="m314.028 63.916c8.759 0 15.859-11.74 15.859-26.221 0-12.397-5.251-23.101-12.588-25.658l-8.359-2.913c-17.455-6.083-35.198-9.124-52.94-9.124v63.916z" fill="url(#SVGID_00000139998141196409115880000004674395136666396299_)"/><path d="m182.113 37.695c0 14.482 7.1 26.221 15.859 26.221h116.056c8.759 0 15.859-11.74 15.859-26.221 0-7.536-1.948-14.433-5.118-19.268h-137.538c-3.17 4.835-5.118 11.732-5.118 19.268z" fill="url(#SVGID_00000052066812649655494990000010256025574385595039_)"/></g><g><g><path d="m382.082 312.254h-164.023c-3.543 0-6.416-2.872-6.416-6.416 0-3.543 2.872-6.416 6.416-6.416h164.022c3.543 0 6.416 2.872 6.416 6.416 0 3.543-2.872 6.416-6.415 6.416z" fill="url(#SVGID_00000152259440142244380170000001319280751688473493_)"/><path d="m382.082 356.367h-164.023c-3.543 0-6.416-2.872-6.416-6.416 0-3.543 2.872-6.416 6.416-6.416h164.022c3.543 0 6.416 2.872 6.416 6.416 0 3.543-2.872 6.416-6.415 6.416z" fill="url(#SVGID_00000040543508963806956520000002000171424093216179_)"/><path d="m382.082 400.48h-164.023c-3.543 0-6.416-2.872-6.416-6.416 0-3.543 2.872-6.416 6.416-6.416h164.022c3.543 0 6.416 2.872 6.416 6.416 0 3.543-2.872 6.416-6.415 6.416z" fill="url(#SVGID_00000036213633184939640160000004413785822554055568_)"/><path d="m382.082 444.592h-164.023c-3.543 0-6.416-2.872-6.416-6.416 0-3.543 2.872-6.416 6.416-6.416h164.022c3.543 0 6.416 2.872 6.416 6.416s-2.872 6.416-6.415 6.416z" fill="url(#SVGID_00000183948144931417836070000017210793193953297587_)"/></g><path d="m168.797 356.367h-33.644c-6.434 0-11.65-5.216-11.65-11.65v-33.644c0-6.434 5.216-11.65 11.65-11.65h33.644c6.434 0 11.65 5.216 11.65 11.65v33.644c0 6.434-5.216 11.65-11.65 11.65z" fill="url(#SVGID_00000085931848122238041730000005943322952743299511_)"/></g><path d="m404.782 477.122-192.704-192.703-65.633 60.453 137.109 137.108h101.876c7.001 0 13.589-1.76 19.352-4.858z" fill="url(#SVGID_00000149367805661907547430000012922086216884112811_)"/><g><g><path d="m154.339 348.143c-2.982 0-5.785-1.162-7.894-3.271l-20.745-20.746c-2.929-2.93-2.929-7.678 0-10.607 2.929-2.928 7.678-2.928 10.606 0l18.033 18.033 47.133-47.133c2.929-2.928 7.678-2.928 10.606 0 2.929 2.93 2.929 7.678 0 10.607l-49.847 49.847c-2.107 2.107-4.91 3.27-7.892 3.27z" fill="url(#SVGID_00000117665325908634468470000018039319114433634190_)"/></g><g><path d="m154.339 348.143c-2.982 0-5.785-1.162-7.894-3.271l-20.745-20.746c-2.929-2.93-2.929-7.678 0-10.607 2.929-2.928 7.678-2.928 10.606 0l18.033 18.033 47.133-47.133c2.929-2.928 7.678-2.928 10.606 0 2.929 2.93 2.929 7.678 0 10.607l-49.847 49.847c-2.107 2.107-4.91 3.27-7.892 3.27z" fill="url(#SVGID_00000140725086703265796580000014534270817935527069_)"/></g></g><g><g><path d="m264.025 270.169c-5.348 0-10.695-2.035-14.766-6.105l-65.662-65.662c-2.297-2.297-6.021-2.297-8.318 0l-35.212 35.213c-2.929 2.929-7.678 2.929-10.607 0s-2.929-7.678 0-10.607l35.213-35.213c8.142-8.142 21.39-8.14 29.531 0l65.662 65.662c2.297 2.297 6.021 2.297 8.318 0l103.75-103.75c2.929-2.929 7.678-2.929 10.607 0s2.929 7.678 0 10.607l-103.75 103.75c-4.072 4.07-9.419 6.105-14.766 6.105z" fill="url(#SVGID_00000006687128275837541560000018275668276958670772_)"/></g><path d="m382.54 160.313c2.929-2.929 2.929-7.678 0-10.607s-7.678-2.929-10.607 0l-103.75 103.75c-2.297 2.297-6.021 2.297-8.318 0l-21.809-21.809-10.607 10.607 21.81 21.81c4.071 4.07 9.418 6.105 14.766 6.105 5.347 0 10.695-2.035 14.766-6.105z" fill="url(#SVGID_00000096771867077028603490000004106625176706849707_)"/><g><g><g><circle cx="135.347" cy="226.884" fill="url(#SVGID_00000075120704187668413260000003364157786395635106_)" r="16.04"/><path d="m119.307 226.884c0 8.858 7.181 16.04 16.04 16.04 8.858 0 16.04-7.181 16.04-16.04 0-1.919-.338-3.758-.956-5.463h-30.168c-.618 1.705-.956 3.545-.956 5.463z" fill="url(#SVGID_00000137846898618600943820000007149748922424062111_)"/><path d="m124.005 238.226c6.264 6.264 16.42 6.264 22.683 0 6.264-6.264 6.264-16.42 0-22.683-1.357-1.357-2.896-2.418-4.539-3.187l-21.332 21.332c.77 1.642 1.831 3.181 3.188 4.538z" fill="url(#SVGID_00000018937953561639823220000009067634293188533436_)"/></g></g><g><g><circle cx="376.653" cy="154.884" fill="url(#SVGID_00000150817968406131031210000014324576589280656264_)" r="16.04"/><path d="m360.614 154.884c0 8.858 7.181 16.04 16.04 16.04 8.858 0 16.04-7.181 16.04-16.04 0-1.919-.338-3.758-.956-5.463h-30.168c-.618 1.705-.956 3.545-.956 5.463z" fill="url(#SVGID_00000176740346040712065220000014562056473471767169_)"/><path d="m365.312 166.226c6.264 6.264 16.42 6.264 22.683 0 6.264-6.264 6.264-16.42 0-22.683-1.357-1.357-2.896-2.418-4.539-3.187l-21.332 21.332c.77 1.642 1.831 3.181 3.188 4.538z" fill="url(#SVGID_00000178905574153962520590000012261740649061632191_)"/></g></g></g></g></g><g/><g/><g/><g/><g/><g/><g/><g/><g/><g/><g/><g/><g/><g/><g/></svg>