<svg enable-background="new 0 0 512 512" viewBox="0 0 512 512" xmlns="http://www.w3.org/2000/svg"><g id="_x32_7_Delivery_Truck"><g><path d="m320.078 158.304v194.121h-279.926v-194.121c0-13.895 11.264-25.158 25.158-25.158h229.609c13.895-.001 25.159 11.263 25.159 25.158z" fill="#b8daff" stroke="#b8daff" stroke-miterlimit="10"/><path d="m40.152 209.527h279.926v63.981h-279.926z" fill="#fefdfe"/><path d="m460.392 241.268v111.157h-140.314v-167.644h83.827c6.528 0 12.789 2.593 17.405 7.209l31.873 31.873c4.616 4.616 7.209 10.877 7.209 17.405z" fill="#b8daff"/><path d="m435.466 265.727v-24.331l-31.69-31.689h-58.772v56.02z" fill="#fefdfe"/><path d="m465.856 390.689h-431.169c-5.585 0-10.113-4.528-10.113-10.113v-18.039c0-5.585 4.528-10.113 10.113-10.113h431.169c5.585 0 10.113 4.528 10.113 10.113v18.039c0 5.585-4.527 10.113-10.113 10.113z" fill="#fefdfe"/><path d="m431.893 384.422c0 27.905-22.597 50.538-50.502 50.538s-50.502-22.633-50.502-50.538c0-27.869 22.597-50.502 50.502-50.502s50.502 22.633 50.502 50.502z" fill="#b8daff" stroke="#b8daff" stroke-miterlimit="10"/><path d="m400.18 384.433c0 10.382-8.407 18.803-18.789 18.803s-18.789-8.42-18.789-18.803c0-10.369 8.407-18.789 18.789-18.789s18.789 8.42 18.789 18.789z" fill="#fefdfe"/><path d="m169.655 384.422c0 27.905-22.597 50.538-50.502 50.538s-50.502-22.633-50.502-50.538c0-27.869 22.597-50.502 50.502-50.502s50.502 22.633 50.502 50.502z" fill="#b8daff" stroke="#b8daff" stroke-miterlimit="10"/><path d="m423.08 311.591c0 8.744 7.088 15.832 15.832 15.832h21.474v-31.664h-21.474c-8.744 0-15.832 7.088-15.832 15.832z" fill="#fefdfe" stroke="#b8daff" stroke-miterlimit="10"/><path d="m137.942 384.433c0 10.382-8.407 18.803-18.789 18.803s-18.789-8.42-18.789-18.803c0-10.369 8.407-18.789 18.789-18.789s18.789 8.42 18.789 18.789z" fill="#fefdfe"/><path d="m493.731 126.129c0 6.953-5.639 12.593-12.593 12.593h-41.507c-6.953 0-12.593-5.639-12.593-12.593 0-6.754 5.308-12.248 11.969-12.579-1.048-13.61 9.394-23.566 21.377-23.566 11.989 0 22.425 9.95 21.377 23.566 6.662.331 11.97 5.824 11.97 12.579z" fill="#fefdfe"/><path d="m161.983 77.39c0 6.953-5.639 12.593-12.593 12.593h-41.507c-6.953 0-12.593-5.639-12.593-12.593 0-6.754 5.308-12.248 11.969-12.579-1.048-13.61 9.394-23.566 21.377-23.566 11.989 0 22.425 9.95 21.377 23.566 6.663.332 11.97 5.825 11.97 12.579z" fill="#fefdfe"/><path d="m332 47.072c0 6.953-5.639 12.593-12.593 12.593h-41.507c-6.953 0-12.593-5.639-12.593-12.593 0-6.754 5.308-12.248 11.969-12.579-1.048-13.61 9.394-23.566 21.377-23.566 11.989 0 22.425 9.95 21.377 23.566 6.662.331 11.97 5.824 11.97 12.579z" fill="#fefdfe"/><g fill="#3f8cf4"><path d="m250.854 470.643c0-2.709-2.195-4.901-4.901-4.901h-166.973c-2.707 0-4.901 2.192-4.901 4.901s2.195 4.901 4.901 4.901h166.973c2.707 0 4.901-2.192 4.901-4.901z"/><path d="m335.662 496.165h-113.644c-2.707 0-4.901 2.192-4.901 4.901s2.195 4.901 4.901 4.901h113.644c2.707 0 4.901-2.192 4.901-4.901s-2.194-4.901-4.901-4.901z"/><path d="m476.163 465.741h-113.644c-2.707 0-4.901 2.192-4.901 4.901s2.195 4.901 4.901 4.901h113.644c2.707 0 4.901-2.192 4.901-4.901s-2.194-4.901-4.901-4.901z"/><path d="m346.908 270.628h90.461c2.707 0 4.901-2.192 4.901-4.901v-24.33c0-1.302-.517-2.546-1.436-3.465l-31.689-31.692c-.919-.919-2.166-1.436-3.465-1.436h-58.771c-2.707 0-4.901 2.192-4.901 4.901v56.021c-.001 2.71 2.193 4.902 4.9 4.902zm4.901-56.021h51.84l28.817 28.82v17.399h-80.658v-46.219z"/><path d="m346.908 296.734c1.254 0 2.508-.479 3.465-1.436l9.133-9.128c1.915-1.915 1.915-5.016.002-6.931-1.915-1.915-5.019-1.915-6.933 0l-9.133 9.128c-1.915 1.915-1.915 5.016-.002 6.931.958.957 2.214 1.436 3.468 1.436z"/><path d="m467.761 347.524h-.565v-106.256c0-7.888-3.071-15.298-8.644-20.869l-31.873-31.873c-5.576-5.576-12.988-8.644-20.869-8.644h-78.927v-21.578c0-16.576-13.484-30.059-30.059-30.059h-229.609c-16.576 0-30.062 13.484-30.062 30.059v189.221h-.563c-8.278 0-15.013 6.735-15.013 15.015v18.036c0 8.281 6.735 15.015 15.013 15.015h30.191c2.922 14.236 11.329 26.482 22.889 34.468h-73.305c-2.707 0-4.901 2.192-4.901 4.901s2.195 4.901 4.901 4.901h104.691c26.728 0 49.095-19.037 54.274-44.271h153.691c2.922 14.236 11.329 26.482 22.889 34.468h-59.334c-2.707 0-4.901 2.192-4.901 4.901s2.195 4.901 4.901 4.901h90.719c26.726 0 49.093-19.037 54.272-44.271h30.194c8.278 0 15.013-6.735 15.013-15.015v-18.036c0-8.279-6.735-15.014-15.013-15.014zm-61.952-157.841c5.263 0 10.214 2.049 13.938 5.773l31.873 31.873c3.722 3.719 5.773 8.673 5.773 13.938v49.588h-16.578c-11.433 0-20.733 9.3-20.733 20.735s9.3 20.735 20.733 20.735h16.578v15.197h-32.889c-10.151-11.326-24.84-18.505-41.209-18.505-16.37 0-31.059 7.179-41.211 18.505h-15.203c0-33.873 0-102.517 0-137.996v-19.845h78.928zm51.579 110.976v21.865h-16.573c-6.026 0-10.93-4.906-10.93-10.932s4.904-10.932 10.93-10.932h16.573zm-410.432-86.229h270.123v54.179h-270.123zm20.259-76.384h229.607c11.169 0 20.257 9.085 20.257 20.257 0 1.484 0 48.518 0 46.324h-270.123v-46.324c0-11.172 9.087-20.257 20.259-20.257zm-20.259 140.365h270.123v69.113h-154.812c-10.151-11.326-24.841-18.505-41.211-18.505s-31.059 7.179-41.211 18.505h-32.889zm-10.366 107.376c-2.872 0-5.21-2.341-5.21-5.213v-18.036c0-2.872 2.338-5.213 5.21-5.213.761 0 38.327 0 36.19 0-4.52 8.02-7.129 17.253-7.129 27.097 0 .46.058.906.069 1.364h-29.13zm84.466 44.271c-25.144 0-45.601-20.472-45.601-45.635 0-25.144 20.458-45.601 45.601-45.601s45.601 20.458 45.601 45.601c0 25.163-20.457 45.635-45.601 45.635zm55.335-44.271c.011-.458.069-.904.069-1.364 0-9.843-2.609-19.076-7.129-27.097h165.689c-4.52 8.02-7.129 17.253-7.129 27.097 0 .46.058.906.069 1.364zm206.904 44.271c-25.144 0-45.601-20.472-45.601-45.635 0-25.144 20.458-45.601 45.601-45.601s45.599 20.458 45.599 45.601c0 25.163-20.455 45.635-45.599 45.635zm89.676-49.483c0 2.872-2.338 5.213-5.21 5.213h-29.133c.011-.458.069-.904.069-1.364 0-9.843-2.609-19.076-7.129-27.097h30.726 5.466c2.872 0 5.21 2.341 5.21 5.213v18.035z"/><path d="m383.295 360.744c-13.062 0-23.691 10.626-23.691 23.689 0 13.072 10.628 23.703 23.691 23.703 13.062 0 23.689-10.631 23.689-23.703 0-13.063-10.626-23.689-23.689-23.689zm0 37.589c-7.658 0-13.888-6.237-13.888-13.9 0-7.658 6.23-13.886 13.888-13.886 7.656 0 13.886 6.227 13.886 13.886 0 7.663-6.23 13.9-13.886 13.9z"/><path d="m121.056 360.744c-13.062 0-23.691 10.626-23.691 23.689 0 13.072 10.628 23.703 23.691 23.703 13.062 0 23.691-10.631 23.691-23.703 0-13.063-10.629-23.689-23.691-23.689zm0 37.589c-7.658 0-13.888-6.237-13.888-13.9 0-7.658 6.23-13.886 13.888-13.886s13.888 6.227 13.888 13.886c0 7.663-6.23 13.9-13.888 13.9z"/><path d="m488.558 109.519c-.457-6.031-2.841-11.598-6.914-15.997-10.394-11.22-28.272-11.263-38.706.005-4.073 4.399-6.459 9.961-6.919 15.992-6.991 2.317-11.978 8.893-11.978 16.609 0 9.645 7.848 17.495 17.495 17.495h41.506c9.647 0 17.495-7.85 17.495-17.495-.001-7.716-4.986-14.293-11.979-16.609zm-5.516 24.301h-41.506c-4.241 0-7.692-3.451-7.692-7.692 0-4.107 3.212-7.481 7.309-7.682 1.323-.067 2.561-.665 3.437-1.656.874-.991 1.309-2.298 1.209-3.614-.381-4.949 1.158-9.563 4.332-12.991 6.569-7.083 17.816-7.034 24.32 0 3.173 3.422 4.71 8.037 4.329 12.986-.101 1.321.335 2.623 1.209 3.619.876.991 2.113 1.589 3.437 1.656 4.097.201 7.309 3.576 7.309 7.682-.001 4.241-3.452 7.692-7.693 7.692z"/><path d="m149.892 44.781c-10.414-11.242-28.293-11.241-38.701.005-4.076 4.399-6.462 9.966-6.919 15.997-6.993 2.317-11.978 8.893-11.978 16.609 0 9.645 7.848 17.495 17.495 17.495h41.506c9.645 0 17.492-7.85 17.492-17.495 0-7.716-4.985-14.293-11.978-16.609-.457-6.037-2.841-11.603-6.917-16.002zm9.092 32.611c0 4.241-3.449 7.692-7.69 7.692h-41.506c-4.241 0-7.692-3.451-7.692-7.692 0-4.107 3.212-7.481 7.309-7.682 1.323-.067 2.561-.665 3.437-1.656.874-.996 1.309-2.298 1.209-3.619-.381-4.949 1.158-9.563 4.332-12.991 6.539-7.055 17.782-7.062 24.318 0 3.173 3.427 4.71 8.041 4.329 12.991-.101 1.321.335 2.628 1.209 3.619.876.991 2.113 1.589 3.437 1.656 4.097.2 7.308 3.575 7.308 7.682z"/><path d="m319.912 14.463c-10.419-11.242-28.293-11.241-38.706.005-4.073 4.399-6.459 9.966-6.917 15.992-6.993 2.321-11.981 8.903-11.981 16.614 0 9.645 7.848 17.49 17.495 17.49h41.506c9.647 0 17.495-7.845 17.495-17.49 0-7.711-4.985-14.293-11.978-16.609-.457-6.036-2.841-11.598-6.914-16.002zm9.09 32.611c0 4.241-3.451 7.687-7.692 7.687h-41.506c-4.241 0-7.692-3.446-7.692-7.687 0-4.107 3.214-7.481 7.316-7.687 1.321-.067 2.558-.665 3.432-1.656.874-.996 1.309-2.298 1.209-3.619-.381-4.944 1.156-9.559 4.329-12.986 6.556-7.069 17.798-7.048 24.32 0 3.173 3.427 4.71 8.037 4.329 12.986-.101 1.321.335 2.623 1.209 3.619.874.991 2.111 1.589 3.432 1.656 4.102.205 7.314 3.58 7.314 7.687z"/></g></g></g><g id="Layer_1"/></svg>