<svg id="Capa_1" enable-background="new 0 0 512 512" height="512" viewBox="0 0 512 512" width="512" xmlns="http://www.w3.org/2000/svg"><g><g><g><path d="m0 256c0 141.385 114.615 256 256 256l35.088-259.272-35.088-252.728c-141.385 0-256 114.615-256 256z" fill="#badb47"/><path d="m256 0v512c141.385 0 256-114.615 256-256s-114.615-256-256-256z" fill="#1fc979"/></g><g><path d="m70.787 256c0 102.291 82.923 185.213 185.213 185.213l25.386-187.581-25.386-182.845c-102.29 0-185.213 82.923-185.213 185.213z" fill="#edf5ff"/><path d="m256 70.787v370.427c102.29 0 185.213-82.923 185.213-185.213 0-102.291-82.923-185.214-185.213-185.214z" fill="#d6e8fd"/></g><g><path d="m238.772 303.005c0 9.966 6.147 16.299 15.275 16.299.668 0 1.317-.041 1.952-.112v-32.374c-.635-.071-1.284-.112-1.952-.112-9.127-.001-15.275 6.333-15.275 16.299z" fill="none"/><path d="m210.964 159.476h-41.334v24.189c0 33.104 26.932 60.036 60.036 60.036h26.334l15.258-28.864-15.258-34.961c-11.01-12.495-27.113-20.4-45.036-20.4z" fill="#1fc979"/></g><path d="m301.036 159.476c-17.923 0-34.026 7.905-45.036 20.4v63.826h26.333c33.104 0 60.036-26.932 60.036-60.036v-24.189h-41.333z" fill="#19a995"/></g><path d="m144.321 352.781h47.574v-22.165h-25.408v-11.931h23.29v-22.165h-23.29v-11.93h25.408v-22.166h-47.574z" fill="#19a995"/><path d="m326.186 263.852c-25.085 0-45.493 20.408-45.493 45.493 0 25.084 20.408 45.492 45.493 45.492s45.493-20.408 45.493-45.492c0-25.085-20.408-45.493-45.493-45.493zm0 68.819c-12.863 0-23.328-10.465-23.328-23.326 0-12.863 10.465-23.328 23.328-23.328s23.328 10.465 23.328 23.328c0 12.862-10.465 23.326-23.328 23.326z" fill="#0d7579"/><g><path d="m225.807 309.345c0 12.862 10.465 23.326 23.328 23.326 2.524 0 4.812-.415 6.865-1.209v-44.418c-2.204-.677-4.513-1.026-6.865-1.026-12.863-.001-23.328 10.464-23.328 23.327z" fill="none"/><path d="m249.135 332.671c-12.863 0-23.328-10.465-23.328-23.326 0-12.863 10.465-23.328 23.328-23.328 2.352 0 4.661.349 6.865 1.026l6.931-13.234-6.931-9.44c-2.258-.342-4.551-.517-6.865-.517-25.085 0-45.493 20.407-45.493 45.493 0 25.084 20.408 45.491 45.493 45.491 2.349 0 4.639-.188 6.865-.544l6.931-13.688-6.931-9.142c-2.053.795-4.341 1.209-6.865 1.209z" fill="#19a995"/><path d="m262.324 326.915c-.525.627-1.089 1.208-1.676 1.731-1.368 1.219-2.926 2.149-4.648 2.816v22.831c7.345-1.175 13.959-4.256 19.39-9.094 1.383-1.232 2.699-2.589 3.912-4.034z" fill="#0d7579"/></g><path d="m262.169 289.995 12.411-18.366c-5.618-3.796-11.943-6.255-18.579-7.259v22.674c2.178.668 4.254 1.657 6.168 2.951z" fill="#0d7579"/></g></svg>