<svg height="512" viewBox="0 0 24 24" width="512" xmlns="http://www.w3.org/2000/svg"><g id="Layer_2" data-name="Layer 2"><path d="m20.75 8.36v12.64a1.76 1.76 0 0 1 -1.75 1.75h-14a1.76 1.76 0 0 1 -1.75-1.75v-18a1.76 1.76 0 0 1 1.75-1.75h9.53a1.77 1.77 0 0 1 1.35.63l4.46 5.36a1.7 1.7 0 0 1 .41 1.12z" fill="#8749e8"/><path d="m20.75 8.36v.39h-4.75a1.76 1.76 0 0 1 -1.75-1.75v-5.75h.28a1.77 1.77 0 0 1 1.35.63l4.46 5.36a1.7 1.7 0 0 1 .41 1.12z" fill="#6333c1"/><g fill="#fff"><path d="m12 9.75h-4a.75.75 0 0 1 0-1.5h4a.75.75 0 0 1 0 1.5z"/><path d="m16 13.75h-8a.75.75 0 0 1 0-1.5h8a.75.75 0 0 1 0 1.5z"/><path d="m16 17.75h-8a.75.75 0 0 1 0-1.5h8a.75.75 0 0 1 0 1.5z"/></g></g></svg>