<svg fill="none" height="24" viewBox="0 0 24 24" width="24" xmlns="http://www.w3.org/2000/svg" xmlns:xlink="http://www.w3.org/1999/xlink"><linearGradient id="paint0_linear_145_519" gradientUnits="userSpaceOnUse" x1="1.25" x2="15.249" y1="3.25" y2="21.984"><stop offset="0" stop-color="#21d4fd"/><stop offset="1" stop-color="#ac00ff"/></linearGradient><g fill="url(#paint0_linear_145_519)"><path d="m7 20.75c1.38071 0 2.5-1.1193 2.5-2.5s-1.11929-2.5-2.5-2.5-2.5 1.1193-2.5 2.5 1.11929 2.5 2.5 2.5z"/><path d="m17 20.75c1.3807 0 2.5-1.1193 2.5-2.5s-1.1193-2.5-2.5-2.5-2.5 1.1193-2.5 2.5 1.1193 2.5 2.5 2.5z"/><g clip-rule="evenodd" fill-rule="evenodd"><path d="m2.22727 3.25c-.25921 0-.5078.10208-.69108.28379-.18328.1817-.28623.42814-.28619.68509l.00013.93639h7.24987v4.5h-2v3.00003h-5.24882l.00071 5.1261c.00004.2584.10426.5062.28947.688.18522.1819.43608.2829.69679.2806h1.04489c-.02179-.1636-.03304-.3305-.03304-.5 0-2.0711 1.67893-3.75 3.75-3.75s3.75 1.6789 3.75 3.75c0 .1695-.0112.3364-.033.5h2.566c-.0218-.1636-.033-.3305-.033-.5 0-2.0711 1.6789-3.75 3.75-3.75s3.75 1.6789 3.75 3.75c0 .1695-.0112.3364-.033.5h1.0557c.5398 0 .9773-.4337.9773-.9688v-6.7812c0-.1756-.0481-.3479-.1393-.4984l-2.9318-4.84375c-.1766-.29179-.4947-.47033-.838-.47033l-3.9091-.00002v-.96875c0-.53503-.4375-.96875-.9773-.96875zm12.70633 6.7812v-2.9062l3.3558.00001 1.7591 2.90619z"/><path d="m7.25 8.40573h-6v-2h6zm-2 2.99997h-4v-1.99997h4z"/></g></g></svg>