<svg enable-background="new 0 0 512 512" height="512" viewBox="0 0 512 512" width="512" xmlns="http://www.w3.org/2000/svg" xmlns:xlink="http://www.w3.org/1999/xlink"><linearGradient id="SVGID_1_" gradientUnits="userSpaceOnUse" x1="111.069" x2="400.867" y1="400.9" y2="111.102"><stop offset=".0056" stop-color="#3b8bf5"/><stop offset="1" stop-color="#c7d5f3"/></linearGradient><g id="_x36_5_View"><path d="m478.613 188.941c36.548 37.599 36.548 96.519-.008 134.125-11.77 12.134-23.112 22.849-34.649 32.761-4.834 4.158-12.108 3.595-16.258-1.231-4.151-4.83-3.595-12.111 1.231-16.258 11.012-9.454 21.851-19.704 33.14-31.338 27.338-28.122 27.338-73.876.008-101.994-48.078-49.535-122.847-108.575-206.106-108.575-83.266 0-158.036 59.04-206.106 108.566-27.263 28.122-27.263 73.884.008 102.009 48.062 49.522 122.832 108.562 206.098 108.562 41.592 0 85.143-14.847 129.46-44.129 5.299-3.502 12.453-2.053 15.981 3.261 3.505 5.314 2.049 12.468-3.265 15.977-48.152 31.819-95.989 47.95-142.175 47.95-91.328 0-171.487-62.846-222.649-115.569-36.458-37.602-36.458-96.515-.008-134.113 51.17-52.727 131.329-115.573 222.657-115.573 91.319 0 171.478 62.846 222.641 115.569zm-222.65-33.001c55.186 0 100.08 44.898 100.08 100.084 0 55.159-44.895 100.032-100.08 100.032-55.163 0-100.035-44.872-100.035-100.032 0-55.185 44.872-100.084 100.035-100.084zm0 23.059c-42.448 0-76.976 34.555-76.976 77.025 0 42.444 34.529 76.972 76.976 76.972 42.47 0 77.021-34.529 77.021-76.972.001-42.47-34.55-77.025-77.021-77.025z" fill="url(#SVGID_1_)"/></g></svg>