<svg id="Layer_1" height="512" viewBox="0 0 512 512" width="512" xmlns="http://www.w3.org/2000/svg" data-name="Layer 1"><g fill-rule="evenodd"><g fill="#d1e7ff"><path d="m224.471 197.8a52.3 52.3 0 0 1 45.99-51.86l2.237-.267v104.26l-2.237-.268a52.3 52.3 0 0 1 -45.99-51.865z"/><path d="m157.8 283.018 17.192-22.018a4.014 4.014 0 0 0 .308-4.469 116.873 116.873 0 0 1 -11.834-28.556 4 4 0 0 0 -3.382-2.944l-27.715-3.405v-47.647l27.715-3.4a4 4 0 0 0 3.382-2.945 116.97 116.97 0 0 1 11.834-28.559 4.016 4.016 0 0 0 -.309-4.47l-17.191-22.017 33.685-33.688 22.015 17.194a4.01 4.01 0 0 0 4.473.31 116.412 116.412 0 0 1 28.562-11.836 4 4 0 0 0 2.939-3.377l3.405-27.719h19.821v60.339l-1.862.129a84.069 84.069 0 0 0 0 167.727l1.862.129v60.343h-19.818l-3.405-27.723a4 4 0 0 0 -2.94-3.377 116.622 116.622 0 0 1 -28.562-11.839 4.008 4.008 0 0 0 -4.471.309l-22.018 17.2z"/><path d="m319.44 78.746a12.109 12.109 0 1 1 12.109 12.113 12.128 12.128 0 0 1 -12.109-12.113z"/><path d="m375.168 92.072a12.111 12.111 0 1 1 -12.108 12.108 12.119 12.119 0 0 1 12.108-12.108z"/><path d="m408.929 185.692a12.111 12.111 0 1 1 -12.109 12.108 12.129 12.129 0 0 1 12.109-12.108z"/><path d="m387.281 291.426a12.111 12.111 0 1 1 -12.113-12.109 12.12 12.12 0 0 1 12.113 12.109z"/><path d="m343.658 316.861a12.109 12.109 0 1 1 -12.109-12.109 12.122 12.122 0 0 1 12.109 12.109z"/></g><path d="m331.549 68.637a10.111 10.111 0 1 1 -10.109 10.109 10.124 10.124 0 0 1 10.109-10.109zm33.511 35.543a10.111 10.111 0 1 1 10.108 10.114 10.123 10.123 0 0 1 -10.108-10.114zm43.869 83.512a10.111 10.111 0 1 1 -10.109 10.108 10.129 10.129 0 0 1 10.109-10.109zm-23.647 103.734a10.111 10.111 0 1 1 -10.114-10.109 10.119 10.119 0 0 1 10.114 10.109zm-43.624 25.435a10.109 10.109 0 1 1 -10.109-10.109 10.122 10.122 0 0 1 10.109 10.109zm-70.958-69.181a50.237 50.237 0 0 1 0-99.753zm54.851-147.655v40.911h-42.88a6 6 0 0 0 -5.972-5.368 62.235 62.235 0 0 0 0 124.47 6.012 6.012 0 0 0 5.972-5.367h42.878v40.911a22.114 22.114 0 1 0 12 0v-43.067a9.856 9.856 0 0 0 -9.84-9.845h-45.009v-13.434h86.469v40.916a22.109 22.109 0 1 0 12 0v-43.072a9.855 9.855 0 0 0 -9.84-9.845h-88.629v-13.429h104.95a22.114 22.114 0 1 0 0-12h-104.95v-13.435h88.63a9.854 9.854 0 0 0 9.84-9.845v-43.067a22.11 22.11 0 1 0 -12 0v40.912h-86.47v-13.434h45.01a9.857 9.857 0 0 0 9.84-9.845v-43.067a22.109 22.109 0 1 0 -12 0zm-191.18 75.723v44.11l25.959 3.189a5.993 5.993 0 0 1 5.07 4.415 115.028 115.028 0 0 0 11.633 28.067 5.992 5.992 0 0 1 -.463 6.7l-16.1 20.623 31.18 31.19 20.623-16.109a6.011 6.011 0 0 1 6.708-.463 114.286 114.286 0 0 0 28.072 11.633 6.005 6.005 0 0 1 4.41 5.066l3.189 25.968h16.048v-56.475a86.069 86.069 0 0 1 0-171.717v-56.474h-16.049l-3.189 25.964a6.008 6.008 0 0 1 -4.41 5.066 114.353 114.353 0 0 0 -28.072 11.632 6 6 0 0 1 -6.708-.462l-20.623-16.1-31.18 31.184 16.1 20.624a5.992 5.992 0 0 1 .463 6.7 115.147 115.147 0 0 0 -11.632 28.065 5.987 5.987 0 0 1 -5.07 4.416zm-1.521 56.012 22.072 2.712a126.594 126.594 0 0 0 9.736 23.514l-13.689 17.529a11.951 11.951 0 0 0 .971 15.784l31.27 31.27a11.939 11.939 0 0 0 15.779.966l17.533-13.689a126.387 126.387 0 0 0 23.515 9.746l2.713 22.067a11.936 11.936 0 0 0 11.839 10.476h22.111a5.982 5.982 0 0 0 6-6v-68.266a6 6 0 0 0 -6-6 74.066 74.066 0 0 1 0-148.131 6 6 0 0 0 6-6v-68.271a6 6 0 0 0 -6-6h-22.11a11.944 11.944 0 0 0 -11.84 10.481l-2.713 22.067a125.8 125.8 0 0 0 -23.515 9.75l-17.533-13.694a11.944 11.944 0 0 0 -15.779.967l-31.27 31.27a11.95 11.95 0 0 0 -.971 15.783l13.689 17.529a126.462 126.462 0 0 0 -9.736 23.515l-22.072 2.712a11.949 11.949 0 0 0 -10.481 11.845v44.223a11.946 11.946 0 0 0 10.481 11.845zm-82.521 96.224a9.008 9.008 0 0 0 8.081 9.873l25.859 2.518a5.992 5.992 0 0 1 5.4 5.571l1.731 25.954 13.1 1.934a6 6 0 0 1 4.151 9.208l-8.534 13.118 15.222 5.529a6.007 6.007 0 0 1 3.9 6.49l-5.08 35.567c1.972 5.67 5.368 9.482 10.368 11.633 10.293 4.434 33.313 4.321 84.512-21.416a6 6 0 0 1 8.26 3.127c9.948 24.8 16.831 45.936 20.467 62.922h205.35c-15.977-21.1-29.369-59.841-40.718-117.588a5.978 5.978 0 0 1 .911-4.51 341.764 341.764 0 0 0 58.421-187 179.394 179.394 0 0 0 -83.68-151.614c-61.65-39.108-152.669-35.943-221.35 7.7-56.4 35.84-84.422 91.125-76.96 151.763 13.609 36.449 15.92 59.214 7.25 71.611a4.707 4.707 0 0 1 -.613.735c-21.156 21.864-34.637 43.124-36.048 56.875zm6.92 21.816 20.793 2.024 1.708 25.7a6 6 0 0 0 5.109 5.539l8.632 1.273-7.548 11.614a5.994 5.994 0 0 0 2.977 8.91l17.75 6.444-4.589 32.114a6.089 6.089 0 0 0 .188 2.575c2.939 9.8 8.84 16.666 17.51 20.4 17.821 7.679 46.893 1.528 88.772-18.807 9.311 23.845 15.491 43.845 18.41 59.52a6 6 0 0 0 5.9 4.9h224.059a6 6 0 0 0 3.821-10.627c-17.783-14.652-33.279-54.634-46.09-118.848a353.779 353.779 0 0 0 59.081-191.562 192.258 192.258 0 0 0 -89.252-161.8c-65.441-41.515-161.75-38.345-234.219 7.7-60.7 38.577-90.71 98.39-82.342 164.1a5.791 5.791 0 0 0 .34 1.349c15.349 40.883 12.463 55.62 9.132 60.837-23.444 24.293-37.279 46.869-39 63.605a21.009 21.009 0 0 0 18.858 23.04z" fill="#2e58ff"/></g></svg>