<svg id="Layer_1" enable-background="new 0 0 3873 3873" height="512" viewBox="0 0 3873 3873" width="512" xmlns="http://www.w3.org/2000/svg" xmlns:xlink="http://www.w3.org/1999/xlink"><linearGradient id="SVGID_1_" gradientUnits="userSpaceOnUse" x1="799.825" x2="3077.083" y1="589.621" y2="2866.879"><stop offset="0" stop-color="#fc00ff"/><stop offset="1" stop-color="#00dbde"/></linearGradient><path d="m2000.2 2074.8c0 54.6-66.5 82.4-105.3 43.6-38.4-38.4-11.7-105.3 43.6-105.3 34.1 0 61.7 27.5 61.7 61.7zm269.5-407.3v-142.8c0-182.9-148.2-331.1-331.1-331.1s-331.1 148.2-331.1 331.1v142.8c3.9-.5 18.3-2.9 39.7-2.9 610.6 1 585.7-2.5 622.5 2.9zm-331.2-1112.5-1130.3 472.2c-33.1 214.1-229.3 1796.2 1118.1 2306.3h24.5c1347.4-510 1151.2-2092.2 1118.1-2306.3zm560.2 1851.9c0 148.4-120.3 268.7-268.7 268.7h-582.8c-148.4 0-268.7-120.3-268.7-268.7v-473.6c0-99.5 54.4-188.3 138.3-235v-173.6c0-232.9 188.9-421.8 421.8-421.8s421.8 188.9 421.8 421.8v173.6c82 45.7 138.2 133.5 138.3 235zm-268.8-651.7h-582.8c-98.3 0-178 79.7-178 178v473.6c0 98.3 79.7 178 178 178h582.8c98.3 0 178-79.7 178-178 0-21 0-453.2 0-473.6 0-49.2-19.9-93.7-52.1-125.9-56.2-56.2-124-51.7-125.9-52.1zm-246.1 465.1v142c0 25-20.3 45.3-45.3 45.3s-45.3-20.3-45.3-45.3h-.2v-142c-61.9-19.3-107-77-107-145.5 0-84 68.4-152.4 152.4-152.4 84.1 0 152.4 68.3 152.4 152.4 0 68.5-45.1 126.2-107 145.5zm1385.1-1273.2c-16.2-87.6-75.6-161.1-157.8-195.5l-1170.9-489.2c-65.1-27.2-138.4-27.2-203.5 0l-1170.9 489.2c-82.2 34.4-141.6 107.9-157.8 195.5-3.8 20.7-92.4 512.3 17.3 1081 144.7 750.6 572.5 1325.7 1299.9 1597.8 29.6 11 60.9 16.7 92.5 16.7 27.9-1.5 73.1 6.1 134-16.7 727.5-272.1 1155.2-847.3 1299.9-1597.8 109.7-568.7 21.1-1060.3 17.3-1081zm-1393.8 2473.9.1.2c-14.9 5.6-65.7 4.1-77.9-2-1518.7-572.3-1175.3-2426.4-1174.4-2431.8v-.1c3-16.8 14.8-29.8 29.8-35l1168.4-488.1v-.1c12.5-5.2 26.1-4.4 37.4 1.1l1168.3 488.1h.1c15.3 6.4 25.3 20.3 27.4 35.6 10.8 60.3 321.6 1870.6-1179.2 2432.1z" fill="url(#SVGID_1_)"/></svg>