<svg viewBox="0 0 512 512" xmlns="http://www.w3.org/2000/svg" xmlns:xlink="http://www.w3.org/1999/xlink"><linearGradient id="linear-gradient" gradientUnits="userSpaceOnUse" x1="164.85" x2="97.42" y1="415" y2="347.57"><stop offset="0" stop-color="#fe7838"/><stop offset=".54" stop-color="#fe7636"/><stop offset="1" stop-color="#ffad8a"/></linearGradient><linearGradient id="linear-gradient-2" gradientUnits="userSpaceOnUse" x1="389.98" x2="212.92" y1="299.5" y2="122.44"><stop offset="0" stop-color="#6f2efe"/><stop offset=".52" stop-color="#6f2efe"/><stop offset="1" stop-color="#ae90ff"/></linearGradient><g id="Layer_12" data-name="Layer 12"><path d="m496.52 129.86c-13.43-49.48-64.89-100.94-114.37-114.37-30.33-7.57-70.98-15.36-126.15-15.49-55.16.14-95.81 7.92-126.14 15.49-49.48 13.44-100.94 64.89-114.37 114.37-7.57 30.33-15.35 70.98-15.49 126.14.14 55.17 7.92 95.82 15.49 126.15 13.43 49.48 64.89 100.93 114.37 114.37 30.33 7.57 71 15.35 126.14 15.49 55.17-.14 95.82-7.92 126.15-15.49 49.48-13.44 100.94-64.89 114.37-114.37 7.57-30.33 15.35-71 15.49-126.15-.14-55.16-7.92-95.81-15.49-126.14z" fill="#f2eeff"/><path d="m174.29 405.56a47.68 47.68 0 0 0 -67.43-67.43c-13.27 13.26-18.49 33.81-20.15 52.43a166.88 166.88 0 0 0 .18 31.65 3.89 3.89 0 0 0 3.26 3.31h.12c1.07 0 16.31.35 21-14.49a30.26 30.26 0 0 1 3.68-7.83 5.15 5.15 0 0 1 9.37 3.62 25.27 25.27 0 0 0 3.32 16.29 3.17 3.17 0 0 0 3.2 1.52c15.93-2.43 32.27-7.89 43.45-19.07z" fill="url(#linear-gradient)"/><path d="m425.64 116.16c-1-16.56-12.82-28.39-29.37-29.38-56.27-3.35-118.91 20.49-167.78 69.37l-13 13q-7 7-13.39 14.45h-41.1a25.51 25.51 0 0 0 -20.8 12.75l-24.2 48.36a25 25 0 0 0 -1.35 5.37 11.89 11.89 0 0 0 11.75 11.75h30.6c-4 13.33-1.32 26.44 7.15 34.91l51.58 51.58c8.47 8.47 21.58 11.11 34.91 7.15v30.53a11.89 11.89 0 0 0 11.75 11.75 25.57 25.57 0 0 0 5.37-1.34l48.24-24.15a25.54 25.54 0 0 0 12.75-20.81v-41.09q7.42-6.36 14.49-13.36l13-13c48.91-48.94 72.76-111.61 69.4-167.84zm-56.29 95.84a48.73 48.73 0 1 1 0-68.91 48.72 48.72 0 0 1 0 68.91z" fill="url(#linear-gradient-2)"/></g></svg>