<svg id="Layer_1" enable-background="new 0 0 52 52" height="512" viewBox="0 0 52 52" width="512" xmlns="http://www.w3.org/2000/svg"><g id="Conveyor_Belt"><g><g><g><g><path d="m33.9423294 31.6420059-13.5700073 7.8300171-.039978-21.7999878 1.5-3.0900268 10.5499877-6.0899659 1.5200196 1.3399659z" fill="#dba660"/></g><g><g fill="#497bfe"><path d="m26.1423416 7.2683005 4.1500244 2.4300542-7.9800415 4.6099854v-4.8599854h3.8300171z"/><path d="m32.5123367 25.1783352v.0100098l-.0100097-.0100098z"/></g></g><g fill="#497bfe"><path d="m32.502327 25.1783352.0100098.0100098v-.0100098z"/><path d="m33.9023514 9.8383083-1.5200195-1.3499756-2.0899658 1.210022-7.9800415 4.6099854-.4799805.2799683-1.5 3.0800171.039978 21.7999859 13.5700073-7.8299541zm-1.3900147 15.3500367-.0100098-.0100098-10.7399902 6.210022-.0199585-13.1300049.5799561-1.1900024v2.1499634l10.1799927 5.960022h.0100098v.0100097z"/></g><g><g><path d="m32.4956741 11.2067862-.7953148-.6868868-5.5543479-3.2539292v2.1863451h-3.8374768l.017519 9.7620077 10.1840935 5.9704552z" fill="#497bfe"/></g></g><g><path d="m32.3854141 8.4928055 1.5125466 1.3425045.0434723 21.8051338-13.5649624 7.8317356-.0434723-21.8051338 1.5000057-3.0818043zm.128891 16.6902618-.0222778-13.1262999-.7902431-.6930361-9.1772938 5.2985134-.7795048 1.599329.0222816 13.1262989z" fill="#57b3fe"/></g><g><g><path d="m21.7672672 31.3878727-1.0348854-.6014099 10.7470379-6.2048054 1.0348854.6014099z" fill="#e3e7f0"/></g></g><g><g><g><g enable-background="new"><g><g><path d="m35.8323441 45.0182991v.9200439c0 .2699585-.1799927.539978-.5299683.75-.7200317.4199829-1.9000244.4199829-2.6199951 0-.3700562-.210022-.5500488-.4899902-.5500488-.7600098v-.9199829c0-.2800293.1799927-.5500488.5400391-.7600098.7199707-.4100342 1.8899536-.4100342 2.6099854 0 .369995.209961.5499877.4899903.5499877.7699586z" fill="#1d2943"/></g></g></g></g><g><g enable-background="new"><g><g><path d="m35.8329659 45.0169449.0000038.9212036c-.0007668.2714844-.1785812.5423775-.5348396.7494125-.7192955.4180107-1.8946838.4180183-2.6186981.0000076-.3632393-.2097168-.5441093-.4849625-.5433311-.7599869l-.0000038-.9211845c-.0007782.275013.1800919.5502586.5433311.7599754.7240143.4180107 1.8994026.4180031 2.6186981-.0000076.3562583-.207035.534069-.4779243.5348396-.7494201z" fill="#1d2943"/></g></g><g><g><path d="m35.2852707 44.2520256c.7240143.4180069.7321548 1.0963287.0128555 1.5143394-.7192955.4180107-1.8946838.4180183-2.6186981.0000076-.723999-.4179993-.7234917-1.0963249-.0041924-1.5143356.7192956-.4180107 1.886036-.4180145 2.610035-.0000114z" fill="#4c5c75"/></g></g></g></g><g><g enable-background="new"><g><g><path d="m35.0486565 37.6535759-.0208473 7.3532219c-.0004425.1554871-.1026344.3109856-.3071098.4298134-.4109344.2388077-1.0763245.2373009-1.4873352.0000038-.2087898-.1205444-.3134041-.2784462-.3129578-.4359894l.0208435-7.3532219c-.0004425.1575432.1041718.3154449.3129578.4359894.4110146.2373009 1.0764046.2388039 1.487339-.0000038.2044715-.1188278.3066673-.2743263.3071098-.4298134z" fill="#c9cee2"/></g></g><g><g><path d="m34.7392998 37.220356c.4110146.2372971.4131851.6242218.0022469.8630333-.4109344.2388077-1.0763245.2373047-1.487339.0000038-.41362-.2388039-.418396-.624218-.0074577-.8630257.4109343-.2388115 1.078926-.2388191 1.4925498-.0000114z" fill="#f3f1fc"/></g></g></g></g></g><g><g><g enable-background="new"><g><g><path d="m47.8523636 38.0283089v.9200439c0 .2699585-.1699829.5499878-.5300293.75-.7199707.4199829-1.8999634.4199829-2.6199951 0-.3599854-.210022-.539978-.4800415-.539978-.7600098v-.9200439c0-.2699585.1799927-.539978.539978-.75.7200317-.4199829 1.8800049-.4199829 2.6099854 0 .3677368.2074585.5501709.4949341.5371094.7785645.000183-.0060425.0029296-.0125123.0029296-.0185547z" fill="#1d2943"/></g></g></g></g><g><g enable-background="new"><g><g><path d="m47.8560066 38.0299225v.9211998c-.0007668.2714882-.1785774.5423775-.5348358.7494125-.7192993.4180107-1.8946838.4180183-2.6186981.0000076-.3632431-.2097168-.5441132-.4849625-.5433311-.7599831l-.0000076-.9211884c-.0007782.275013.1800919.5502586.5433311.7599792.7240143.4180069 1.8994026.4179993 2.6187019-.0000114.3562584-.2070311.5340691-.4779242.5348396-.7494162z" fill="#1d2943"/></g></g><g><g><path d="m47.3083076 37.2649994c.7240143.4180107.7321548 1.0963326.0128593 1.5143394-.7192993.4180107-1.8946877.4180183-2.6187019.0000114-.723999-.4180031-.7234879-1.0963287-.0041924-1.5143356.7192994-.4180107 1.886036-.4180183 2.610035-.0000152z" fill="#4c5c75"/></g></g></g></g><g><g enable-background="new"><g><g><path d="m47.0716934 30.6665497-.0208473 7.3532219c-.0004387.1554871-.1026344.3109856-.307106.4298134-.4109344.2388077-1.0763245.2373047-1.487339.0000038-.2087898-.1205444-.3134003-.2784462-.3129539-.4359894l.0208397-7.35322c-.0004425.1575432.1041718.3154449.3129616.4359894.4110107.237299 1.0764008.2388039 1.4873352-.0000057.2044753-.1188259.3066672-.2743244.3071097-.4298134z" fill="#c9cee2"/></g></g><g><g><path d="m46.7623367 30.2333298c.4110146.2372971.4131851.6242237.0022469.8630333-.4109344.2388096-1.0763245.2373047-1.4873352.0000057-.4136238-.2388058-.418396-.624218-.0074615-.8630276.4109382-.2388115 1.078926-.2388172 1.4925498-.0000114z" fill="#f3f1fc"/></g></g></g></g></g></g><g><g><g><g enable-background="new"><g><g><path d="m7.9823685 28.8283596v.9199829c0 .2699585-.1799927.5499878-.5400391.75-.7199707.4199829-1.8899536.4199829-2.6199951 0-.3599854-.210022-.539978-.4800415-.539978-.7600098v-.9199829c0-.2700195.1799927-.5400391.539978-.75.7200317-.4200439 1.8900146-.4200439 2.6100464 0 .3599853.209961.5499878.4899903.5499878.7600098z" fill="#1d2943"/></g></g></g></g><g><g enable-background="new"><g><g><path d="m7.9795527 28.8303127.0000024.9212036c-.0007677.2714844-.1785793.5423756-.5348377.7494106-.7192974.4180107-1.8946843.4180183-2.6186986.0000076-.3632412-.2097168-.5441113-.4849625-.5433316-.759985l-.0000057-.9211864c-.0007782.2750149.1800914.5502605.5433331.7599773.7240143.4180107 1.8994007.4180031 2.6186986-.0000076.3562583-.207035.5340699-.4779262.5348395-.7494201z" fill="#1d2943"/></g></g><g><g><path d="m7.4318562 28.0653915c.7240143.4180088.7321548 1.0963306.012857 1.5143414s-1.8946843.4180183-2.6186986.0000076c-.7239995-.4180012-.7234912-1.0963249-.0041938-1.5143356.7192978-.4180088 1.8860354-.4180145 2.6100354-.0000134z" fill="#4c5c75"/></g></g></g></g><g><g enable-background="new"><g><g><path d="m7.195241 21.4669418-.0208468 7.3532238c-.0004406.1554871-.1026349.3109837-.3071079.4298115-.4109349.2388096-1.0763245.2373047-1.4873376.0000057-.2087893-.1205444-.3134022-.2784462-.3129554-.4359913l.0208416-7.35322c-.0004416.1575432.1041708.3154449.3129601.4359894.4110131.237299 1.0764027.2388039 1.4873376-.0000057.204473-.1188259.3066673-.2743244.3071084-.4298134z" fill="#c9cee2"/></g></g><g><g><path d="m6.8858848 21.0337219c.4110136.237299.4131846.6242237.0022478.8630333-.4109349.2388096-1.0763245.2373047-1.4873376.0000057-.4136229-.2388058-.418396-.624218-.0074611-.8630276.4109368-.2388095 1.078928-.2388171 1.4925509-.0000114z" fill="#f3f1fc"/></g></g></g></g></g><g><g><g enable-background="new"><g><g><path d="m20.0025902 21.8432884.0000038.9212017c-.0007687.2714863-.1785793.5423775-.5348377.7494125-.7192974.4180107-1.8946857.4180183-2.6186981.0000076-.3632431-.2097168-.5441132-.4849625-.5433331-.759985l-.0000057-.9211864c-.0007782.275013.1800919.5502586.5433331.7599773.7240143.4180088 1.8994007.4180012 2.6186981-.0000076.3562583-.207035.5340709-.4779262.5348396-.7494201z" fill="#1d2943"/></g></g><g><g><path d="m19.454895 21.0783653c.7240143.4180107.7321548 1.0963326.0128555 1.5143433-.7192974.4180088-1.8946838.4180164-2.6186981.0000076-.723999-.4180012-.7234917-1.0963249-.0041943-1.5143356.7192994-.4180107 1.886036-.4180164 2.6100369-.0000153z" fill="#4c5c75"/></g></g></g></g><g><g enable-background="new"><g><g><path d="m19.2182789 14.4799166-.0208473 7.3532228c-.0004406.1554871-.1026344.3109856-.3071079.4298115-.4109344.2388096-1.0763245.2373047-1.4873371.0000057-.2087898-.1205444-.3134022-.2784443-.3129559-.4359894l.0208435-7.35322c-.0004425.1575432.1041698.315444.3129597.4359894.4110126.237298 1.0764027.2388029 1.4873371-.0000057.2044735-.1188269.3066673-.2743244.3071079-.4298143z" fill="#dedffb"/></g></g><g><g><path d="m18.9089241 14.0466967c.4110126.237298.4131832.6242237.0022469.8630342-.4109344.2388086-1.0763245.2373037-1.4873371.0000057-.4136238-.2388058-.418396-.6242189-.0074615-.8630285.4109363-.2388105 1.0789279-.2388172 1.4925517-.0000114z" fill="#f3f1fc"/></g></g></g></g></g></g><g><g><g enable-background="new"><g><g><path d="m13.6423416 10.3983059c.0400391-.0199585.0900269-.039978.1400146-.0499878-.0700073.0200195-.1300049.0499878-.1900024.0800171.0100098-.0200195.0299683-.0200195.0499878-.0300293z" fill="#c9cee2"/></g></g><g><g fill="#c9cee2"><path d="m50.002327 31.7383327c0 .5800152-.2099609.9799786-.539978 1.1799908l-.9699707.539978c-.3400269.25-.8300171.2400513-1.3800049-.0799561l-32.25-18.6000347c-1.0100098-.5799561-1.8300171-2-1.8300171-3.1699829 0-.5900269.210022-1 .5599976-1.1799927.0599976-.0300293.1199951-.0599976.1900024-.0800171-.0499878.0100098-.0999756.0300293-.1400146.0499878l.9700317-.5599976c.3399658-.1999512.7999878-.1699829 1.3099976.1300049l32.25 18.5900269c1.0100097.5899659 1.829956 2.0100098 1.829956 3.1799927z"/><path d="m13.6423416 10.3983059c.0400391-.0199585.0900269-.039978.1400146-.0499878-.0700073.0200195-.1300049.0499878-.1900024.0800171.0100098-.0200195.0299683-.0200195.0499878-.0300293z"/></g></g></g></g><g><g enable-background="new"><g><g><path d="m49.9976349 31.737051c0 .5793209-.2018356.9829082-.5337868 1.1782246l-1.0476303.5959511c.3319931-.1952782.5337906-.5988655.5337906-1.1782265.0065155-1.1651936-.813694-2.590786-1.8291817-3.1766205l-32.2430801-18.592083c-.5142403-.2994537-.9764318-.3254776-1.3084249-.1301994l1.0476283-.5959883c.3319931-.1952782.7941456-.1692543 1.3084249.1301994l32.243042 18.592083c1.015524.5858336 1.8356953 2.011426 1.829218 3.1766596z" fill="#e3e7f0"/></g></g><g><g><path d="m47.1209908 29.1589317c1.0140953.5854874 1.8343315 2.0061874 1.831028 3.1714592s-.8289032 1.635746-1.8429947 1.0502586l-32.2448521-18.5973787c-1.0140934-.5854874-1.8343306-2.0061874-1.831027-3.1714602.0033035-1.1652708.8289022-1.635747 1.8429956-1.0502596z" fill="#c9cee2"/></g></g></g></g><g><path d="m47.9519196 32.4698601c0 .5514488-.1921234.9356194-.5081062 1.1215439l-9.4098854 5.4243011c.316021-.1858826.50811-.5700531.50811-1.1215401.0061989-1.1091385-.7745476-2.4661407-1.7411804-3.0237923l-21.3600398-12.3311977c-.4894991-.2850456-10.8785992-6.0317249-11.1946201-5.8458405l9.4098835-5.4243422c.316021-.1858835.7559385-.1611109 1.2454758.1239357l31.3091469 18.0531044c.9666719.5576488 1.7473802 1.9146549 1.7412157 3.0238277z" fill="#4c5c75"/></g><g><path d="m47.9493599 32.4681206c0 .5567474-.1879539.9399757-.5060883 1.1207314l-9.4066277 5.4299202c.3108978-.1879539.5061302-.5711784.5061302-1.1279259 0-.3181343-.0650902-.6579399-.1807556-.9977837-.0723305-.2241402-.1735649-.4482765-.2964668-.6651764-.3181343-.5711784-.7664108-1.0700722-1.2653046-1.3592987l-1.1495934-.6651764-.7230301-.4121323-2.9499741-1.7063408-.7230282-.4193707-2.949976-1.6991024-.7302666-.4193687-2.9571686-1.7135773-.7230301-.4121342-2.9499741-1.7063389-.7302685-.4193707-2.9499302-1.6991024-.7230301-.4193687-1.0990191-.6362705c-.4916553-.2892303-10.8818817-6.0328045-11.1927786-5.8448086l9.4066267-5.4299631c.3181353-.1807575.7591734-.15909 1.2436352.1301403l11.0481195 6.3581762.7230301.4121323 2.9499741 1.7063408.7302685.4193687 2.9571686 1.7063408.7158356.4121323 2.9571686 1.7063408.7302666.4193687 2.9499741 1.7063408.7230301.4193687 2.9571686 1.7063408.7230301.4121323 1.1496353.6651745c.4988937.2892303.9471703.7881222 1.2580681 1.3593006.1229019.2168999.2241364.4410381.2964211.6651764.1157114.3398458.1807596.6796495.1807596.9977838z" fill="#4c5c75"/></g><g><g><g><path d="m26.6705914 18.1666107-9.4065838 5.4299622-.7230301-.4193688 9.4065838-5.4227256z" fill="#1d2943"/></g></g><g><g><path d="m30.3508339 20.2923203-9.4066277 5.4227256-.7302684-.4193706 9.4066276-5.4227238z" fill="#1d2943"/></g></g><g><g><path d="m26.6742325 18.1738472-9.4066277 5.4227257-.7302665-.4193688 9.4066257-5.4227256z" fill="#1d2943"/></g></g><g><g><path d="m22.9976311 16.0553761-9.4066277 5.4227237-.7302675-.4193687 9.4066267-5.4227257z" fill="#1d2943"/></g></g><g><g><path d="m15.963151 12.0033951-9.4066267 5.4227257-.7302675-.4193707 9.4066276-5.4227247z" fill="#1d2943"/></g></g><g><g><path d="m19.3210297 13.936903-9.4066277 5.4227257-.7302675-.4193707 9.4066267-5.4227247z" fill="#1d2943"/></g></g><g><g><path d="m34.023838 22.4107933-9.4066276 5.4227257-.7230301-.4121342 9.4138222-5.4227238z" fill="#1d2943"/></g></g><g><g><path d="m37.7112732 24.5365028-9.4066277 5.4299622-.7302665-.4193687 9.4066276-5.4299622z" fill="#1d2943"/></g></g><g><g><path d="m41.3842773 26.6622124-9.4066276 5.4227256-.7230282-.4193706 9.4066258-5.4227238z" fill="#1d2943"/></g></g><g><g><path d="m45.064476 28.7806854-9.4138222 5.4227257-.7230301-.4121323 9.4138222-5.4227256z" fill="#1d2943"/></g></g><g><g><path d="m47.7686005 31.4703369-9.4065819 5.4227257c-.0723305-.2241402-.1735649-.4482765-.2964668-.6651764l9.4066277-5.4227257c.1229018.2168999.2241363.4410382.296421.6651764z" fill="#1d2943"/></g></g></g><path d="m38.9623489 37.9883308c0 .5700073-.2000122.9799805-.5299683 1.1699829l-1.0500488.6000366c.0500488-.0300293.0900269-.0599976.1300049-.1000366-.3299561.2900391-.8499756.2999878-1.4400024-.0299683l-32.2399902-18.6000346c-1.0200195-.5799561-1.8399658-2-1.8300171-3.1699829 0-.5800171.2000122-.9899902.5300293-1.1799927h.0100097l1.039978-.5900269c.3300171-.1999512.789978-.1699829 1.3099976.1300049l32.2399902 18.5900249c1.0200196.5800172 1.8400269 2.0100098 1.8300171 3.1799927z" fill="#c9cee2"/><g><g><path d="m38.9621735 37.9833984c0 .579319-.2018356.9829063-.5337868 1.1782265l-1.0476303.5959473c.3319931-.1952782.5337868-.5988655.5337868-1.1782265.0065193-1.1651917-.8136902-2.590786-1.8291779-3.1766205l-32.2430804-18.5920811c-.5142398-.2994537-.9764318-.3254776-1.3084249-.1301994l1.0476279-.5959892c.3319931-.1952791.7941453-.1692553 1.3084247.1301994l32.243042 18.5920811c1.0155249.5858345 1.8356924 2.0114288 1.8292189 3.1766624z" fill="#c9cee2"/></g><g><path d="m36.0855293 35.4052773c1.0140953.5854874 1.8343315 2.0061874 1.831028 3.1714592s-.8289032 1.635746-1.8429947 1.0502586l-32.2448525-18.5973797c-1.0140934-.5854855-1.8343307-2.0061855-1.8310272-3.1714592.0033036-1.1652699.8289024-1.635746 1.8429958-1.0502586z" fill="#e3e7f0"/></g></g><g><g><g><g><path d="m17.0823441 26.4883327c-.0100098.289978-.1099854.4899902-.2700195.5900269l-.5.289978c-.0199585.0100098-.0299683.0200195-.0499878.0299683-.1699829.1000366-.4099731.0900269-.6699829-.0599976-.5-.2999878-.9199829-1.0099487-.9199829-1.5999756.0100098-.3099976.1199951-.5200195.2999878-.6099854.0100098 0 .0100098-.0100098.0200195-.0100098l.5-.2999878c.1699829-.1000366.4099731-.0800171.6599731.0700073.5200195.2899782.9299927 1.0099489.9299927 1.5999757z" fill="#5ec363"/></g></g></g><g enable-background="new"><g><g><path d="m17.082552 26.4883728c-.0078278.2893105-.1094818.4926186-.2737026.5942726l-.5473118.32057c.1641731-.1016541.2658291-.3049164.2658291-.5942726 0-.5942249-.4066181-1.313633-.9226704-1.6029434-.258049-.1485672-.4926176-.1641731-.6568403-.0703468l.5473595-.3206158c.1720486-.0938282.4066172-.0781746.6568403.0703945.5160522.2971363.9304962 1.0086689.9304962 1.6029415z" fill="#5ec363"/></g></g><g><g><path d="m15.6027765 25.2022076c.5142126.2968807.9272242 1.012249.9255495 1.603117-.0016766.590868-.417387.8277721-.9315987.5308914-.5092192-.2939968-.9222383-1.0093689-.9205637-1.6002369.0016757-.5908699.4173947-.8277683.9266129-.5337715z" fill="#78e75a"/></g></g></g><g><g><g><path d="m20.6123734 28.5283108c0 .2900391-.1000366.5-.2700195.6000366l-.5300293.3099976c-.1599731.1099854-.4099731.0999756-.6799927-.0599976-.5100098-.2999878-.9199829-1.0100098-.9199829-1.6000366 0-.2999878.1099854-.5100098.2800293-.6099854.0099487 0 .0199585-.0100098.0299683-.0100098l.5100098-.289978c.1699829-.1099854.4000244-.0900269.6599731.0599976.5200194.2999878.9200439 1.0100098.9200439 1.5999756z" fill="#febc1f"/></g></g></g><g enable-background="new"><g><g><path d="m20.6168327 28.5291939c0 .2893085-.1094322.5004444-.2736549.5942726l-.5473595.3206177c.1642227-.0938759.2658768-.3049641.2658768-.5942726 0-.5942745-.4066181-1.3058548-.9226685-1.6029911-.2580509-.1485214-.4926186-.164175-.6568413-.0703468l.5473595-.3127899c.1720009-.1016541.4066181-.0860004.6646194.0625668.5161.2971362.9226685 1.0086707.9226685 1.6029433z" fill="#febc1f"/></g></g><g><g><path d="m19.1423454 27.245779c.5142136.2968807.9222298 1.0093651.9205551 1.6002331s-.4123917.8306561-.9266052.5337753c-.5142117-.2968807-.9272232-1.012249-.9255486-1.603117.0016766-.5908679.4173871-.8277721.9315987-.5308914z" fill="#ffd06c"/></g></g></g><g><g><g><path d="m13.5523758 24.4483547c0 .289978-.1100464.5-.2800293.5899658l-.5499878.3200073c-.1600342.0999756-.4000244.0900269-.6600342-.0599976-.5099487-.2999878-.9199829-1.0200195-.9199829-1.6099854 0-.2999878.1099854-.5100098.2800293-.6099854.0100098 0 .0199585-.0100098.0299683-.0100098l.5100098-.2900391c.1699829-.0999756.4000244-.0899658.6599731.0599976.5200195.3000491.9300537 1.01001.9300537 1.6100466z" fill="#febc1f"/></g></g></g><g enable-background="new"><g><g><path d="m13.5476665 24.4444351c0 .2893105-.1094341.5004444-.2736559.5942726l-.5473595.3206177c.1642218-.0938759.2658768-.3049641.2658768-.5942726 0-.5942726-.4066181-1.3058548-.9226694-1.6029911-.25805-.1485195-.4926186-.164175-.6568403-.0703468l.5473595-.3127899c.1720009-.1016541.4066172-.0860004.6646194.0625668.516099.2971362.9226694 1.0086707.9226694 1.6029433z" fill="#febc1f"/></g></g><g><g><path d="m12.0731783 23.1610203c.5142126.2968807.9222298 1.0093651.9205551 1.6002331-.0016756.590868-.4123926.8306561-.9266052.5337753-.5142117-.2968807-.9272232-1.0122471-.9255486-1.6031151.0016756-.5908699.417387-.827774.9315987-.5308933z" fill="#ffd06c"/></g></g></g><g><g><g><path d="m10.0123367 22.3983059c0 .2900391-.1099854.5-.2699585.6000366l-.5300293.3099976c-.1699829.1099854-.4099731.0999756-.6799927-.0599976-.5100098-.2900391-.9299927-1.0100098-.9299927-1.6000366.0100098-.3199463.1300049-.5299683.3200073-.6199951l.5-.289978c.1799927-.0999756.4099731-.0900269.6699829.0599976.5100099.2999877.919983 1.0100097.919983 1.5999755z" fill="#5ec363"/></g></g></g><g enable-background="new"><g><g><path d="m10.0130825 22.4020557c0 .2893105-.1094341.5004463-.2736559.5942726l-.5473595.3206177c.1642227-.0938759.2658768-.3049641.2658768-.5942726 0-.5942726-.4066172-1.3058548-.9226694-1.6029911-.258049-.1485195-.4926176-.1641731-.6568403-.0703468l.5473595-.3127899c.1720009-.1016541.4066181-.0860004.6646194.0625668.516099.2971381.9226694 1.0086707.9226694 1.6029433z" fill="#5ec363"/></g></g><g><g><path d="m8.5385952 21.1186409c.5142117.2968807.9222298 1.0093651.9205542 1.6002331-.0016747.590868-.4123917.8306561-.9266043.5337753s-.9272237-1.0122471-.9255486-1.6031151.4173861-.827774.9315987-.5308933z" fill="#78e75a"/></g></g></g><g><g><g><path d="m6.4823685 20.3583279c0 .289978-.1100464.5-.2800293.5999756l-.539978.3200073c.0100098-.0100098.0299683-.0199585.039978-.039978-.1599731.1400146-.4199829.1400146-.7000122-.0300293-.5199585-.289978-.9299927-1.0099487-.9299927-1.5999756 0-.3200073.1199951-.5299683.3099976-.6199951l.5100098-.289978c.1699829-.1100464.4100342-.0900269.6600342.0599976.5199584.2999877.9299926 1.0099486.9299926 1.5999755z" fill="#df3260"/></g></g></g><g enable-background="new"><g><g><path d="m6.4784985 20.3596764c0 .2893105-.1094337.5004463-.2736554.5942726l-.547359.3206177c.1642218-.0938759.2658763-.3049641.2658763-.5942726 0-.5942726-.4066176-1.3058548-.9226694-1.6029911-.2580495-.1485195-.4926181-.1641731-.6568403-.0703468l.547359-.3127899c.1720014-.1016541.4066181-.0860004.6646199.0625687.5160989.2971362.9226689 1.0086687.9226689 1.6029414z" fill="#df3260"/></g></g><g><g><path d="m5.0040112 19.0762615c.5142121.2968807.9222298 1.0093651.9205546 1.600235-.0016751.590868-.4123921.8306561-.9266047.5337753s-.9272237-1.012249-.9255486-1.603117.417386-.827774.9315987-.5308933z" fill="#f45170"/></g></g></g><g><g><g><path d="m24.1523514 30.5683498c0 .289978-.0999756.5-.2700195.5999756l-.5299683.3099976c-.1699829.1099854-.4100342.1000366-.6799927-.0599976-.5200195-.289978-.9299927-1.0100098-.9299927-1.5999756 0-.3000488.1099854-.5100098.2799683-.6100464.0100098 0 .0200195-.0099487.0300293-.0099487l.5099487-.3000488c.1700439-.0999756.4100342-.0799561.6700439.0700073.5100098.2999878.9299927 1.0100098.919983 1.6000366z" fill="#df3260"/></g></g></g><g enable-background="new"><g><g><path d="m24.1511631 30.570013c0 .2893581-.1016541.5004463-.2658291.5942745l-.5551853.3206158c.1720009-.0938263.2736549-.3049622.2736549-.5942726 0-.5942726-.4143963-1.3058052-.9304962-1.6029415-.2580013-.1485691-.4926186-.1642227-.6567917-.0703945l.5473595-.32057c.1720009-.0938282.4065685-.0782223.6646194.0703468.5160504.2971363.9304963 1.0087166.9226685 1.6029415z" fill="#df3260"/></g></g><g><g><ellipse cx="22.674" cy="30.353" fill="#f45170" rx=".758" ry="1.309" transform="matrix(.865 -.502 .502 .865 -12.181 15.502)"/></g></g></g><g><g><g><path d="m27.6823807 32.608326c0 .289978-.1000366.5-.2600098.5999756l-.5300293.3000488c-.1599731.1199951-.4099731.1099854-.6900024-.0500488-.5100098-.289978-.9199829-1.0099487-.9199829-1.5999737 0-.3167725.1253052-.5103149.3101807-.5992432-.0092163.0048828-.0209961.0039673-.0302124.0092163l.0800171-.0499878.460022-.2699585c.1799927-.1000366.3999634-.0900269.6599731.0599976.5200195.2999878.9299926 1.0099468.9200439 1.5999737z" fill="#5ec363"/></g></g></g><g enable-background="new"><g><g><path d="m27.6854935 32.6108818c0 .2893105-.101656.5003967-.2658768.5942726l-.5551395.3205719c.1720028-.0938301.2736568-.304966.2736568-.5942764 0-.5942726-.4143982-1.3058052-.9304962-1.6029415-.2502232-.1485672-.4847927-.1642208-.6490135-.0625668l.5473595-.32057c.1720486-.1016541.3987904-.0860004.6568394.0625687.5160522.2970886.9304961 1.0086689.9226703 1.6029415z" fill="#5ec363"/></g></g><g><g><path d="m26.2115059 31.3271599c.5142117.2968807.9272232 1.012249.9255486 1.6031151-.0016766.5908699-.417387.827774-.9315987.5308952-.5092182-.2939987-.9222393-1.0093727-.9205647-1.6002388.0016766-.5908699.4173947-.8277683.9266148-.5337715z" fill="#78e75a"/></g></g></g><g><g><g><path d="m31.2223587 34.648304c0 .3000488-.1000366.5-.2700195.6100464l-.5499878.3099976c-.1599731.0999756-.4000244.0899658-.6599731-.0599976-.5100098-.3000488-.9200439-1.0200195-.9200439-1.6100464 0-.2999878.1000366-.5.2700195-.5899658l.0700073-.0400391.4799805-.2799683c.1699829-.0999756.4000244-.0900269.6600342.0599976.5099486.2999878.9299926 1.0100098.9199828 1.5999756z" fill="#aa6256"/></g></g></g><g enable-background="new"><g><g><path d="m31.2198219 34.6517029c0 .2971344-.1016541.5004463-.2658768.6021004l-.5551853.3127403c.1720486-.0938263.2737026-.2971344.2737026-.5942726 0-.594223-.4066181-1.3058052-.9226685-1.6029434-.258049-.1485672-.4926186-.1641731-.6568413-.0625648l.5473595-.3205719c.1720009-.1016541.4066181-.0859985.6646194.0625687.5082723.2971381.9226705 1.0086707.9148904 1.6029433z" fill="#aa6256"/></g></g><g><g><path d="m29.7510738 33.3707314c.5142136.2968788.9222298 1.0093651.9205551 1.600235-.0016747.5908661-.4123917.8306541-.9266052.5337753-.5142117-.2968826-.9272232-1.012249-.9255486-1.6031189.0016766-.5908661.4173871-.8277741.9315987-.5308914z" fill="#dba660"/></g></g></g><g><g><g><path d="m34.7623367 36.688343c0 .2999878-.0999756.5-.2699585.6099854l-.5.2800293c-.0200195.0099487-.0300293.0199585-.0500488.0299683-.1699829.0999756-.3999634.0900269-.6599731-.0599976-.5200195-.2999878-.9299927-1.0200195-.9299927-1.6099854 0-.2999878.0999756-.5.2699585-.5900269l.0700073-.039978.4800415-.2800293c.1699829-.0999756.4099731-.0899658.6699829.0599976.5100098.3000489.9199829 1.0200196.9199829 1.6000366z" fill="#5ec363"/></g></g></g><g enable-background="new"><g><g><path d="m34.7619324 36.692524c0 .2971344-.1016541.5004425-.2736588.6021004l-.5473557.3127403c.1641731-.0938263.2658272-.2970886.2736549-.594223 0-.5864487-.4143982-1.3058548-.9304962-1.602993-.2580032-.1485672-.4926186-.1641731-.6567955-.0625191l.5473595-.3206177c.1720009-.1016541.4065704-.0859985.6646194.0625687.5082742.2971343.9226724 1.0164947.9226724 1.6029434z" fill="#5ec363"/></g></g><g><g><ellipse cx="33.283" cy="36.478" fill="#78e75a" rx=".758" ry="1.309" transform="matrix(.865 -.502 .502 .865 -13.822 21.662)"/></g></g></g></g></g><g><path d="m24.0414944 13.3102312-2.2084828 1.2749901-1.4999866 3.0818357.0434685 21.805111 1.2702732-1.4234467.120491-6.6608639-.0222569-13.1262893.7794896-1.5993233 2.9573555-1.7074289-.1565991-2.3858214z" fill="#57b3fe"/></g><g><g><path d="m21.8323441 14.5883083-1.5 3.0800171.039978 21.7999859-6.0099487-3.4899902-.0500489-21.8099957 1.5-3.0800171 10.5599976-6.0899663 6.0100097 3.4899907z" fill="#497bfe"/></g></g><g><g><path d="m20.3764706 39.4721794-6.0160351-3.4961357-.0434723-21.8051348 6.0160351 3.4961367z" fill="#5094ff"/></g></g><g><g><path d="m21.833004 14.5852413-6.0160351-3.4961376 10.5524082-6.0924354 6.016037 3.4961372z" fill="#5094ff"/></g></g><g><g><path d="m20.3329983 17.6670456-6.0160351-3.4961367 1.5000057-3.0818052 6.0160351 3.4961376z" fill="#497bfe"/></g></g></g><g><g><g><path d="m23.8648968 14.074008c.2962494-.1710396.5391579-.0358858.5401325.3077974.0009651.3404112-.2403755.7584248-.5366249.9294643-.2990875.1726789-.539156.0326071-.5401211-.3078041-.0009746-.3436832.2375259-.7567796.5366135-.9294576z" fill="#fff"/></g></g><g><g><path d="m26.0411777 12.8175316c.2962475-.1710386.5391579-.0358849.5401325.3077984.0009651.3404112-.2403774.7584248-.5366249.9294643-.299099.1726837-.5391579.0326071-.540123-.3078041-.0009746-.3436832.2375165-.7567739.5366154-.9294586z" fill="#fff"/></g></g><g><g><path d="m28.2146072 11.5627012c.299099-.1726847.5391483-.0358801.540123.3078041.0009651.3404102-.2375164.7567739-.5366154.9294577-.2962475.1710396-.5363083.0309629-.5372734-.3094482-.0009746-.3436842.2375184-.756774.5337658-.9278136z" fill="#fff"/></g></g><g><g><path d="m30.3908882 10.3062258c.2990971-.1726847.5391464-.0358801.5401211.3078032.0009651.3404112-.2375164.7567739-.5366135.9294586-.2962494.1710396-.5363178.0309677-.5372829-.3094435-.0009747-.3436833.2375259-.7567797.5337753-.9278183z" fill="#fff"/></g></g></g></g><g><g><g><path d="m43.3623734 30.8983059-5.25 3.0300274-4.6000367-2.669981-.0100097-5.5700073 1.8900146-1.0900269.6500244-.3800049h.0100098l.1699829-.0999756.6499634-.3699951 1.8800049-1.0900268 4.5900268 2.6700439z" fill="#f9a83d"/></g></g></g><g><g><g><path d="m33.4987869 25.6923294 4.5925484 2.6688976.0171165 5.5654126-4.5925483-2.6688958z" fill="#f9a83d"/></g><g><path d="m43.3437691 25.3287315-5.2524338 3.0324955-4.5925484-2.6688976 5.2524338-3.0324936z" fill="#ffd06c"/></g><g><path d="m43.3437691 25.3287315.0171165 5.5654145-5.2524338 3.0324936-.0171165-5.5654126z" fill="#febc1f"/></g><g><path d="m35.3934364 24.5982456 1.4802857-.8546409 4.592514 2.6689167-1.4802856.8546409z" fill="#f3f1fc"/></g><g><path d="m39.9859505 27.2671623v1.8472615l.7401428-1.1727314.7401428.3066139v-1.8357849z" fill="#dedffb"/></g><g><path d="m40.6999779 31.9957542-2.200119 1.2701569-.0031853-1.4100513 2.1985397-1.2701569z" fill="#4c5c75"/></g><g><g><path d="m38.8956985 31.8021278.0029946 1.0562592-.1580544.0912514-.0029945-1.0562573z" fill="#e3e7f0"/></g></g><g><g><path d="m39.1894989 31.6325016.0029945 1.0562573-.1115074.0643806-.0029945-1.0562573z" fill="#e3e7f0"/></g></g><g><g><path d="m40.4548874 30.9019299.0029945 1.0562572-.1115074.0643768-.0029945-1.0562553z" fill="#e3e7f0"/></g></g><g><g><path d="m39.8217125 31.2674942.0029945 1.0562592-.1115112.0643806-.0029945-1.0562592z" fill="#e3e7f0"/></g></g><g><g><path d="m40.162056 31.0709972.0029945 1.0562573-.1580543.0912514-.0029946-1.0562573z" fill="#e3e7f0"/></g></g><g><g><path d="m39.5288773 31.4365635.0029945 1.0562572-.1580505.0912514-.0029946-1.0562591z" fill="#e3e7f0"/></g></g><g><path d="m36.0461159 24.2214222.1749267-.1009941 4.5925141 2.6689167-.1749268.1009941z" fill="#e9e7fc"/></g></g></g><g><g><g><path d="m33.0123367 24.938345-5.25 3.0299682-4.5899658-2.6699829-.0200195-5.5700073 1.9000244-1.0899658.6499634-.3800049h.0100097l.1599732-.1000366h.0100097l2.5200196-1.459961 4.5999756 2.6699829z" fill="#f9a83d"/></g></g></g><g><g><g><path d="m23.1534081 19.7325363 4.5925483 2.6688976.0171166 5.5654126-4.5925484-2.6688958z" fill="#f9a83d"/></g><g><path d="m32.9983902 19.3689404-5.2524338 3.0324935-4.5925483-2.6688976 5.2524337-3.0324936z" fill="#ffd06c"/></g><g><path d="m32.9983902 19.3689404.0171165 5.5654125-5.2524337 3.0324936-.0171166-5.5654126z" fill="#febc1f"/></g><g><path d="m25.0480576 18.6384525 1.4802856-.854639 4.592514 2.6689148-1.4802856.8546409z" fill="#f3f1fc"/></g><g><path d="m29.6405716 21.3073692v1.8472615l.7401428-1.1727314.7401428.3066158v-1.8357868" fill="#dedffb"/></g><g><path d="m30.354599 26.0359612-2.200119 1.2701568-.0031834-1.4100494 2.1985378-1.2701588z" fill="#4c5c75"/></g><g><g><path d="m28.5503197 25.8423367.0029945 1.0562572-.1580524.0912514-.0029946-1.0562573z" fill="#e3e7f0"/></g></g><g><g><path d="m28.8441219 25.6727085.0029946 1.0562573-.1115094.0643806-.0029945-1.0562572z" fill="#e3e7f0"/></g></g><g><g><path d="m30.1095104 24.9421368.0029946 1.0562572-.1115075.0643788-.0029945-1.0562573z" fill="#e3e7f0"/></g></g><g><g><path d="m29.4763336 25.307703.0029946 1.0562573-.1115113.0643787-.0029945-1.0562572z" fill="#e3e7f0"/></g></g><g><g><path d="m29.816679 25.1112041.0029945 1.0562573-.1580543.0912514-.0029946-1.0562573z" fill="#e3e7f0"/></g></g><g><g><path d="m29.1834984 25.4767704.0029945 1.0562572-.1580505.0912514-.0029946-1.0562572z" fill="#e3e7f0"/></g></g><g><path d="m25.700737 18.2616291.1749268-.1009922 4.592514 2.6689148-.1749268.1009941z" fill="#e9e7fc"/></g></g></g></g></g></svg>