<svg id="Layer_1" height="512" viewBox="0 0 512 512" width="512" xmlns="http://www.w3.org/2000/svg" data-name="Layer 1"><rect fill="#1e91ef" height="440" rx="56" width="440" x="26" y="40"/><path d="m366.792 236.527c-9.706-13.432-26.182-21.1-53.537-21.1-19.044 0-33.655 5-43.2 12.893l-10-2.893v-10h-14.51c-1.677-1.677-71.524-71.9-75.571-74.421a31.2 31.2 0 1 0 -42.968 42.969c2.525 4.048 30.631 30.977 30.966 31.452h-45.681v178.282l86.29 86.291h211.419a56 56 0 0 0 56-56v-88.883c-33.6-33.982-96.294-96.49-99.208-98.59z" fill="#1a1a1a" opacity=".21"/><g fill="#fff"><path d="m112.291 215.43h62.398v178.279h-62.398z"/><path d="m143.49 188.688a31.2 31.2 0 1 0 -31.2-31.2 31.217 31.217 0 0 0 31.2 31.2z"/><path d="m379.709 295.734c0-48.107-10.377-80.3-66.454-80.3-26.951 0-45.04 10.013-52.439 24.061h-.766v-24.065h-49.706v178.279h51.956v-88.366c0-23.3 4.406-45.866 33.236-45.866 28.4 0 30.695 26.648 30.695 47.366v86.866h53.483z"/></g></svg>