<svg id="Layer_1" enable-background="new 0 0 100 100" viewBox="0 0 100 100" xmlns="http://www.w3.org/2000/svg" xmlns:xlink="http://www.w3.org/1999/xlink"><linearGradient id="lg1"><stop offset="0" stop-color="#97e0ff"/><stop offset="1" stop-color="#1075ff"/></linearGradient><linearGradient id="SVGID_1_" gradientUnits="userSpaceOnUse" x1="15.497" x2="107.514" xlink:href="#lg1" y1="-19.038" y2="81.802"/><linearGradient id="SVGID_00000115486447488421122630000006345644262234878356_" gradientUnits="userSpaceOnUse" x1="25.318" x2="117.335" xlink:href="#lg1" y1="-28" y2="72.84"/><linearGradient id="SVGID_00000168093675437111797290000014025511075888302005_" gradientUnits="userSpaceOnUse" x1="-23.87" x2="68.147" xlink:href="#lg1" y1="16.884" y2="117.724"/><linearGradient id="SVGID_00000026843955628251882970000016261625789468240783_" gradientUnits="userSpaceOnUse" x1="-15.267" x2="76.75" xlink:href="#lg1" y1="9.034" y2="109.874"/><path d="m57.7733727 50.5431252 35.4241905-31.7698879c-1.0838776-.6322575-2.3154221-.9672871-3.5702209-.9712467h-79.2545529c-1.2548466.0039425-2.4864292.3389702-3.5703487.9712467l35.4241829 31.7698879c4.3690032 4.1058311 11.1777496 4.1058311 15.5467491 0z" fill="url(#SVGID_1_)"/><path d="m96.2223587 21.8354092-27.5458069 24.70434 27.7472 31.2516632c.7110672-1.3789749 1.080162-2.9087067 1.0761719-4.4602203v-46.6623803c.0068283-1.6954784-.4338684-3.3627358-1.277565-4.8334026z" fill="url(#SVGID_00000115486447488421122630000006345644262234878356_)"/><path d="m3.7776465 21.8354092c-.8436446 1.4706898-1.2843318 3.1379318-1.2775686 4.8334026v46.6623802c-.003998 1.5514908.3650985 3.081192 1.076169 4.4601517l27.7472051-31.2515946z" fill="url(#SVGID_00000168093675437111797290000014025511075888302005_)"/><path d="m60.272068 54.0771713c-5.7736664 5.4249001-14.7704697 5.4249001-20.5441399 0l-5.2464485-4.7052269-28.0689492 31.613842c1.1721191.7848053 2.5496745 1.2064667 3.960259 1.2122269h79.2545471c1.4105377-.0057297 2.7880554-.4273758 3.9601288-1.2121506l-28.0689411-31.6139183z" fill="url(#SVGID_00000026843955628251882970000016261625789468240783_)"/></svg>