<svg id="glipy_copy" viewBox="0 0 64 64" xmlns="http://www.w3.org/2000/svg" xmlns:xlink="http://www.w3.org/1999/xlink" data-name="glipy copy"><linearGradient id="linear-gradient" gradientUnits="userSpaceOnUse" x1="4.001" x2="59.999" y1="32" y2="32"><stop offset="0" stop-color="#00c0ff"/><stop offset="1" stop-color="#5558ff"/></linearGradient><path d="m31.73007 31.14417a1.01726 1.01726 0 0 0 1.13059 1.13054l5.693-.81037c14.06059 7.1903 27.49781-11.06561 16.33858-22.35173-11.54279-11.0749-29.36286 2.01888-22.35168 16.3387zm8.10428-18.00956a5.09086 5.09086 0 0 1 5.15266.42033c3.09684-2.35927 8.10068.07151 8.00414 4.01223.00006 4.35213-6.67342 9.13467-7.43383 9.66492a.99289.99289 0 0 1 -1.14061 0c-2.39909-1.59309-12.25948-9.51885-4.58236-14.09748zm20.16053 38.99052a4.96912 4.96912 0 0 1 -2.35127 3.802 17.52347 17.52347 0 0 1 -23.54231-.98049l-25.04309-25.04311a17.51362 17.51362 0 0 1 -.98055-23.54237c1.6675-2.47059 4.71114-3.26831 7.00373-1.10055l6.27324 6.27325a4.31485 4.31485 0 0 1 -.68041 6.61351 4.51905 4.51905 0 0 0 -1.30054 6.30329c3.382 5.15358 14.8547 16.6223 20.03045 20.09048a4.64531 4.64531 0 0 0 6.50335-1.21065 4.26438 4.26438 0 0 1 6.58346-.65031l6.25328 6.24333a4.29509 4.29509 0 0 1 1.25066 3.20162zm-21.011-34.538a3.082 3.082 0 0 1 4.99266-2.28117 1.624 1.624 0 0 0 2.021-.00006 3.07774 3.07774 0 0 1 4.99261 2.35127c0 2.48128-3.912 5.94306-6.00315 7.51389-2.02107-1.53082-6.00313-5.05269-6.00313-7.58398z" fill="url(#linear-gradient)"/></svg>